<svg xmlns="http://www.w3.org/2000/svg" viewBox="0 0 20.35 20"><defs><style>.cls-1{fill:#58595b}</style></defs><title>Asset 3</title><g id="Layer_2" data-name="Layer 2"><g id="Layer_2-2" data-name="Layer 2"><path class="cls-1" d="M15.05 1.4A1.76 1.76 0 0 0 13.33 0a.35.35 0 0 0 0 .7 1.05 1.05 0 1 1 0 2.11.35.35 0 0 0 0 .7 1.76 1.76 0 0 0 1.72-1.4h4.6v3.15H.7V2.11h6a.35.35 0 0 0 0-.7H6a1.05 1.05 0 1 1 1 1.4.35.35 0 0 0 0 .7A1.75 1.75 0 1 0 5.3 1.4H0V20h20.35V1.4zm4.6 17.89H.7V6h18.95z"/><path class="cls-1" d="M9.12.7a1.05 1.05 0 1 1 0 2.11.35.35 0 0 0 0 .7 1.75 1.75 0 0 0 0-3.51.35.35 0 0 0 0 .7z"/><path class="cls-1" d="M11.23.7a1.05 1.05 0 0 1 0 2.11.35.35 0 1 0 0 .7 1.75 1.75 0 0 0 0-3.51.35.35 0 1 0 0 .7z"/><circle class="cls-1" cx="7.72" cy="8.42" r=".35"/><circle class="cls-1" cx="10.18" cy="8.42" r=".35"/><circle class="cls-1" cx="12.63" cy="8.42" r=".35"/><circle class="cls-1" cx="15.09" cy="8.42" r=".35"/><circle class="cls-1" cx="17.54" cy="8.42" r=".35"/><circle class="cls-1" cx="2.81" cy="11.23" r=".35"/><circle class="cls-1" cx="5.26" cy="11.23" r=".35"/><circle class="cls-1" cx="7.72" cy="11.23" r=".35"/><circle class="cls-1" cx="10.18" cy="11.23" r=".35"/><circle class="cls-1" cx="12.63" cy="11.23" r=".35"/><circle class="cls-1" cx="15.09" cy="11.23" r=".35"/><circle class="cls-1" cx="17.54" cy="11.23" r=".35"/><circle class="cls-1" cx="2.81" cy="13.68" r=".35"/><circle class="cls-1" cx="5.26" cy="13.68" r=".35"/><circle class="cls-1" cx="7.72" cy="13.68" r=".35"/><circle class="cls-1" cx="10.18" cy="13.68" r=".35"/><circle class="cls-1" cx="12.63" cy="13.68" r=".35"/><circle class="cls-1" cx="15.09" cy="13.68" r=".35"/><circle class="cls-1" cx="17.54" cy="13.68" r=".35"/><circle class="cls-1" cx="2.81" cy="16.49" r=".35"/><circle class="cls-1" cx="5.26" cy="16.49" r=".35"/><circle class="cls-1" cx="7.72" cy="16.49" r=".35"/><circle class="cls-1" cx="10.18" cy="16.49" r=".35"/><circle class="cls-1" cx="12.63" cy="16.49" r=".35"/></g></g></svg>