<svg xmlns="http://www.w3.org/2000/svg" viewBox="0 0 41.93 31.44"><defs><style>.cls-1{fill:#58595b}</style></defs><title>Asset 7100</title><g id="Layer_2" data-name="Layer 2"><g id="Layer_2-2" data-name="Layer 2"><g id="_Group_" data-name="&lt;Group&gt;"><path class="cls-1" d="M38 14.74v-7A7.72 7.72 0 0 0 30.29 0H11.64a7.72 7.72 0 0 0-7.71 7.71v7A5.89 5.89 0 0 0 0 20.29v1.35a5.88 5.88 0 0 0 3.28 5.27v4.54h1.31v-4.08a5.87 5.87 0 0 0 1.29.14h30.17a5.87 5.87 0 0 0 1.29-.14v4.08h1.31v-4.54a5.88 5.88 0 0 0 3.28-5.27v-1.35A5.89 5.89 0 0 0 38 14.74zm-32.75-7a6.4 6.4 0 0 1 6.4-6.4h18.64a6.4 6.4 0 0 1 6.4 6.4v5.2a5.29 5.29 0 0 0-2.62-1.61v-2a2.79 2.79 0 0 0-2.79-2.79h-6.22a2.79 2.79 0 0 0-2.79 2.79v1.79h-2.62V9.34a2.79 2.79 0 0 0-2.79-2.79h-6.21a2.79 2.79 0 0 0-2.79 2.79v2a5.29 5.29 0 0 0-2.62 1.61zm27.51 4.74a4 4 0 0 1 3.41 2H5.76a4 4 0 0 1 3.41-2zM9.17 11.13V9.34a1.48 1.48 0 0 1 1.48-1.48h6.21a1.48 1.48 0 0 1 1.48 1.48v1.79H9.17zm23.58 0h-9.17V9.34a1.48 1.48 0 0 1 1.48-1.48h6.21a1.48 1.48 0 0 1 1.48 1.48v1.79zm3.3 15.07H5.88a4.57 4.57 0 0 1-4.57-4.57v-1.34a4.57 4.57 0 0 1 4.57-4.57h30.17a4.57 4.57 0 0 1 4.57 4.57v1.35a4.57 4.57 0 0 1-4.57 4.56z"/><path class="cls-1" d="M4.59 22.93h32.75v1.31H4.59z"/></g></g></g></svg>