<svg id="Layer_1" xmlns="http://www.w3.org/2000/svg" viewBox="0 0 45 31.4"><style>.st0{opacity:.25}.st1{fill:#58595b}.st2{fill:none;stroke:#58595b;stroke-miterlimit:10}</style><title>Asset 11100</title><g id="Layer_2" class="st0"><g id="Layer_2-2"><path class="st1" d="M12.1 27.6c1.9 0 3.4-1.5 3.4-3.4s-1.5-3.4-3.4-3.4-3.4 1.5-3.4 3.4 1.5 3.4 3.4 3.4zm0-5.3c1.1 0 1.9.9 1.9 1.9s-.9 1.9-1.9 1.9-1.9-.9-1.9-1.9c0-1 .8-1.9 1.9-1.9zm20.8-1.4c-1.9 0-3.4 1.5-3.4 3.4s1.5 3.4 3.4 3.4 3.4-1.5 3.4-3.4-1.5-3.4-3.4-3.4zm0 5.2c-1.1 0-1.9-.9-1.9-1.9 0-1.1.9-1.9 1.9-1.9 1.1 0 1.9.9 1.9 1.9.1 1.1-.8 1.9-1.9 1.9zM13.2 4.3h2.3c.4 0 .7-.3.7-.7s-.3-.7-.7-.7h-2.3c-1.3.1-2.4.6-3.3 1.4l-5.7 6.1c-.3.3-.3.7 0 1 .1.1.3.2.5.2h27.8c.4 0 .7-.3.7-.7 0-.1 0-.2-.1-.3l-3-6.3c-.5-.8-1.3-1.3-2.2-1.4h-9.6c-.4 0-.7.3-.7.7v6.6H6.3L11 5.3c.6-.6 1.4-.9 2.2-1zm5.8 0h9c.3.1.6.3.8.5l2.5 5.3H19V4.3z"/><path class="st1" d="M45 17.9c-.1-2.7-1.8-5.1-4.4-6.1l-3.4-1.1c-.7-.3-1.2-.8-1.6-1.4l-3-6.3c-.9-1.8-2.8-2.9-4.8-3H13.2c-2 .1-3.9.9-5.4 2.3l-6.6 7c-.7.8-1.1 1.9-1.2 3v9c0 2 1.5 3.6 3.5 3.7h1.4c.4 3.9 3.9 6.8 7.8 6.4 3.4-.3 6.1-3 6.4-6.4h4.4c.4 0 .7-.3.7-.7 0-.4-.3-.7-.7-.7h-4.3c-.4-3.9-3.9-6.8-7.8-6.4-3.4.3-6.1 3-6.4 6.4H3.6c-1.2 0-2.2-1-2.2-2.2v-9c0-.7.3-1.4.8-2l6.6-7c1.2-1.1 2.7-1.8 4.3-1.9h14.8c1.4.1 2.8.8 3.5 2.1l3 6.3c.5 1 1.3 1.7 2.4 2.1l2.7.9c-.5 2.6 1.3 5.1 3.9 5.6h.1v2.8c.1 1.1-.7 2-1.8 2.2H40c-.4-3.9-3.9-6.8-7.9-6.4-3.9.4-6.8 3.9-6.4 7.9s3.9 6.8 7.9 6.4c3.4-.3 6.1-3 6.4-6.4h1.7c1.9-.1 3.3-1.7 3.2-3.6l.1-3.5zm-33 .6c3.2 0 5.7 2.6 5.7 5.7s-2.6 5.7-5.7 5.7-5.7-2.6-5.7-5.7c0-3.2 2.6-5.7 5.7-5.7.1 0 .1 0 0 0zm20.9 11.4c-3.2 0-5.7-2.6-5.7-5.7s2.6-5.7 5.7-5.7c3.2 0 5.7 2.6 5.7 5.7.1 3.2-2.5 5.7-5.7 5.7zm8-16.1v-.3c1.3.8 2.2 2.1 2.6 3.6-1.5-.4-2.6-1.8-2.6-3.3z"/></g></g><path class="st2" d="M0 32.1L44.7 0m0 32.1L0 0"/></svg>