<svg id="Layer_1" xmlns="http://www.w3.org/2000/svg" viewBox="0 0 35.3 31.5"><style>.st0{opacity:.25}.st1{fill:#58595b}.st2{fill:none;stroke:#58595b;stroke-miterlimit:10}</style><title>Asset 4100</title><g id="Layer_2" class="st0"><path class="st1" d="M34.9 12.4L18.2.2c-.3-.2-.8-.2-1.1 0L.4 12.4c-.4.4-.4.9-.1 1.3.3.3.8.4 1.2.2L17.6 2l16.2 11.8c.4.3 1 .1 1.3-.3.2-.3.1-.8-.2-1.1zm-4.4 1.7c-.5 0-.9.4-.9.9v14.6h-7.3v-8c0-2.5-2.1-4.6-4.6-4.6S13 19.1 13 21.6v8H5.7V15c-.1-.5-.5-.9-1-.8-.4 0-.8.4-.8.8v15.5c0 .5.4.9.9.9H14c.5 0 .9-.4.9-.9v-9c0-1.5 1.2-2.8 2.8-2.8s2.8 1.2 2.8 2.8v9c0 .5.4.8.9.9h9.2c.5 0 .9-.4.9-.9V15c-.1-.5-.5-.9-1-.9z" id="Layer_2-2"/></g><path class="st2" d="M0 32.1l35.2-33m0 32.1L0 0"/></svg>