<svg xmlns="http://www.w3.org/2000/svg" viewBox="0 0 35.28 31.45"><defs><style>.cls-1{fill:#58595b}</style></defs><title>Asset 4100</title><g id="Layer_2" data-name="Layer 2"><path class="cls-1" d="M34.9 12.42L18.18.18a.92.92 0 0 0-1.08 0L.38 12.42a.92.92 0 0 0 1.08 1.48L17.64 2.05 33.82 13.9a.92.92 0 0 0 1.08-1.48zm-4.43 1.69a.92.92 0 0 0-.92.92v14.58h-7.33v-8a4.58 4.58 0 1 0-9.17 0v8H5.72V15a.92.92 0 0 0-1.83 0v15.53a.92.92 0 0 0 .92.92H14a.92.92 0 0 0 .91-.85.69.69 0 0 0 0-.07v-8.88a2.75 2.75 0 1 1 5.5 0v8.88a.67.67 0 0 0 0 .07.92.92 0 0 0 .91.85h9.17a.92.92 0 0 0 .92-.92V15a.92.92 0 0 0-.94-.89z" id="Layer_2-2" data-name="Layer 2"/></g></svg>