<svg xmlns="http://www.w3.org/2000/svg" viewBox="0 0 33.69 31.44"><defs><style>.cls-1{fill:#58595b}</style></defs><title>Asset 8100</title><g id="Layer_2" data-name="Layer 2"><g id="Layer_2-2" data-name="Layer 2"><path class="cls-1" d="M32 16.85h-.56V5.05A5 5 0 0 0 26.39 0c-2.49 0-4.27 1.84-4.47 4.54a2.78 2.78 0 0 0-2.27 2.76.53.53 0 0 0 .56.56h4.49a.53.53 0 0 0 .56-.56A2.78 2.78 0 0 0 23 4.55c.17-1.78 1.24-3.43 3.34-3.43a3.91 3.91 0 0 1 3.93 3.93v11.8H13.42a2.78 2.78 0 0 0-2.75-2.25 2.93 2.93 0 0 0-2.25-1.12A2.78 2.78 0 0 0 6 15a3.34 3.34 0 0 0-1.46-.39 2.78 2.78 0 0 0-2.75 2.25h-.11a1.68 1.68 0 0 0 0 3.37h.67l1.52 6a4 4 0 0 0 3.82 3h.45l-.73 1.46a.5.5 0 0 0 .22.73.34.34 0 0 0 .22.06.59.59 0 0 0 .51-.28l1-2h15.57l1 1.91a.54.54 0 0 0 .51.34c.11 0 .17 0 .22-.11a.59.59 0 0 0 .22-.73l-.7-1.41a4 4 0 0 0 3.68-2.92l1.53-6.06H32a1.68 1.68 0 1 0 0-3.37zM24.09 6.74h-3.2a1.71 1.71 0 0 1 1.63-1.12 1.64 1.64 0 0 1 1.57 1.12zm-19.6 9a1.89 1.89 0 0 1 1.35.62.51.51 0 0 0 .56.17.54.54 0 0 0 .39-.45 1.74 1.74 0 0 1 1.69-1.48 1.57 1.57 0 0 1 1.46.84.56.56 0 0 0 .62.28h.17a1.64 1.64 0 0 1 1.57 1.12H2.92a1.64 1.64 0 0 1 1.57-1.12zm24.32 10.2a2.88 2.88 0 0 1-2.75 2.13H7.75A2.88 2.88 0 0 1 5 25.94l-1.46-5.73h26.61zM32 19.09H1.68a.56.56 0 1 1 0-1.12H32a.56.56 0 1 1 0 1.12z"/><path class="cls-1" d="M20.21 10.39a.53.53 0 0 0 .56-.56v-.28a.56.56 0 1 0-1.12 0v.28a.53.53 0 0 0 .56.56zm0 2.61a.56.56 0 0 0 .56-.56v-.62a.56.56 0 1 0-1.12 0v.62a.53.53 0 0 0 .56.56zm0 2.16a.53.53 0 0 0 .56-.56v-.28a.56.56 0 1 0-1.12 0v.28a.53.53 0 0 0 .56.56zm2.25-4.77a.53.53 0 0 0 .54-.56v-.28a.56.56 0 1 0-1.12 0v.28a.53.53 0 0 0 .58.56zm-.56 2.02a.53.53 0 0 0 .56.56.56.56 0 0 0 .56-.56v-.62a.56.56 0 1 0-1.12 0zm0 2.19a.56.56 0 1 0 1.12 0v-.28a.56.56 0 1 0-1.12 0zm2.81-4.21a.53.53 0 0 0 .56-.56v-.28a.56.56 0 1 0-1.12 0v.28a.53.53 0 0 0 .56.56zm-.56 2.02a.53.53 0 0 0 .56.56.56.56 0 0 0 .56-.56v-.62a.56.56 0 1 0-1.12 0v.62zm0 2.19a.56.56 0 1 0 1.12 0v-.28a.56.56 0 1 0-1.12 0z"/></g></g></svg>