<svg id="Layer_1" xmlns="http://www.w3.org/2000/svg" viewBox="0 0 45 31.4"><style>.st0,.st1{fill:#fff;stroke:#58595b;stroke-width:.75;stroke-miterlimit:10}.st1{fill:none}.st2{fill:#58595b}</style><title>Asset 11100</title><path class="st0" d="M42.6 28.6H23.8c-.8 0-1.4-.6-1.4-1.4V1.4c0-.8.6-1.4 1.4-1.4h18.8c.8 0 1.4.6 1.4 1.4v25.7c.1.9-.6 1.5-1.4 1.5z"/><path class="st0" d="M27.5 18.6v-6.5c0-1.4-1.1-2.5-2.5-2.5H8.3c-1.4 0-2.5 1.1-2.5 2.5v6.6L1.5 23s-.2.1-.2 1.4c0 .8-.4 4.5 2.7 4.5h26s2.4-.1 2.4-1.8v-2.9s.1-1-.4-1.4c-1-.8-4.5-4.2-4.5-4.2z"/><path class="st1" d="M25.9 18.5v-4.6c0-1.4-1.1-2.5-2.5-2.5H10.6c-1.4 0-2.5 1.1-2.5 2.5v4.8l17.8-.2z"/><path class="st0" d="M13.9 19.9h-2.8c-1.3 0-2.3-1-2.3-2.3 0-1.3 1-2.3 2.3-2.3h2.8c1.3 0 2.3 1 2.3 2.3 0 1.2-1 2.3-2.3 2.3zm8.7 0h-2.8c-1.3 0-2.3-1-2.3-2.3 0-1.3 1-2.3 2.3-2.3h2.8c1.3 0 2.3 1 2.3 2.3 0 1.2-1 2.3-2.3 2.3z"/><path class="st1" d="M1.3 23.9h31M4.4 20.1h24.7M5.8 18.7h2.3m17.8-.2h1.6M3.9 28.9v2.5h1.6l.7-2.5m21.3 0l.9 2.5h1.4v-2.5"/><circle class="st2" cx="35.9" cy="14.8" r=".6"/><circle class="st2" cx="30.1" cy="14.8" r=".6"/><path class="st1" d="M33.1 0v28.6m-8.7.5v2.3h1.5l.8-2.3m12.9-.5l1.1 2.8h.9v-2.8"/></svg>