<svg id="Layer_1" xmlns="http://www.w3.org/2000/svg" viewBox="0 0 32.3 31.4"><style>.st0{opacity:.25}.st1{fill:#58595b}.st2{fill:none;stroke:#58595b;stroke-miterlimit:10}</style><title>Asset 12100</title><g id="Layer_2" class="st0"><g id="Layer_2-2"><path class="st1" d="M31.8 20.2c-.5-.4-1.2-.4-1.7 0-2.2 1.7-5 2.6-7.8 2.6-.8 0-1.5-.1-2.3-.2-.3-.1-.6.1-.6.4s.1.6.4.6c.8.1 1.7.2 2.5.2 3 0 6-1 8.4-2.9.1-.1.3-.1.4.1.1.1.1.2 0 .3-3.5 7.7-12.6 11.1-20.3 7.6S-.2 16.4 3.3 8.7c1.5-3.3 4.2-6 7.6-7.6.1-.1.3 0 .4.1v.3C6.6 7.6 7.8 16.3 13.9 21c1.2.9 2.6 1.7 4.1 2.1.2.2.6.1.8-.1.2-.2.1-.6-.1-.8-.1-.1-.2-.1-.3-.1-6.8-2.1-10.5-9.3-8.3-16 .5-1.4 1.1-2.7 2-3.8.5-.6.4-1.5-.2-2-.4-.3-1-.4-1.4-.2C2.2 3.9-1.4 13.6 2.3 21.9S15.8 33.7 24.1 30c3.6-1.6 6.5-4.5 8.1-8.1.2-.6.1-1.3-.4-1.7z"/><path class="st1" d="M15.9 9.9c1.3 0 2.4 1.1 2.4 2.4 0 .3.2.6.5.6s.6-.2.6-.6c0-1.3 1.1-2.4 2.4-2.4.3 0 .5-.2.5-.6s-.3-.5-.6-.5c-1.3 0-2.4-1.1-2.4-2.4 0-.3-.2-.6-.5-.6s-.6.2-.6.6c0 1.3-1.1 2.4-2.4 2.4-.3 0-.6.2-.6.6s.4.5.7.5zm2.9-1.6c.3.4.6.7 1 1-.4.3-.7.6-1 1-.3-.4-.6-.7-1-1 .4-.2.7-.6 1-1zm4.9 8.7c.9 0 1.7-.7 1.8-1.7s-.7-1.7-1.7-1.8c-.9 0-1.7.7-1.8 1.7v.1c0 .9.8 1.7 1.7 1.7zm0-2.3c.3 0 .6.3.6.6s-.3.6-.6.6-.6-.3-.6-.6.3-.6.6-.6zM2.5 27.1c-.9 0-1.7.8-1.7 1.7 0 .9.8 1.7 1.7 1.7s1.7-.8 1.7-1.7c.1-.9-.7-1.7-1.7-1.7zm0 2.4c-.3 0-.6-.3-.6-.6s.3-.6.6-.6.6.3.6.6-.2.6-.6.6c.1 0 .1 0 0 0z"/><circle class="st1" cx="18.8" cy="16" r=".7"/><circle class="st1" cx=".7" cy="24.3" r=".7"/><circle class="st1" cx="23.2" cy="5.3" r=".7"/></g></g><path class="st2" d="M0 32.1L32.3 0m0 31.1L0 0"/></svg>