<svg xmlns="http://www.w3.org/2000/svg" viewBox="0 0 32.29 31.44"><defs><style>.cls-1{fill:#58595b}</style></defs><title>Asset 12100</title><g id="Layer_2" data-name="Layer 2"><g id="Layer_2-2" data-name="Layer 2"><path class="cls-1" d="M31.77 20.19a1.39 1.39 0 0 0-1.71 0 12.68 12.68 0 0 1-7.76 2.62 12.88 12.88 0 0 1-2.3-.21.55.55 0 0 0-.2 1.09 14 14 0 0 0 2.49.22 13.77 13.77 0 0 0 8.43-2.85.29.29 0 0 1 .44.35A15.3 15.3 0 1 1 10.89 1.13a.29.29 0 0 1 .35.44 13.91 13.91 0 0 0 6.7 21.63.55.55 0 1 0 .35-1 12.8 12.8 0 0 1-6.17-19.96A1.39 1.39 0 0 0 10.43.13a16.4 16.4 0 1 0 21.73 21.73 1.39 1.39 0 0 0-.39-1.67z"/><path class="cls-1" d="M15.86 9.93a2.37 2.37 0 0 1 2.37 2.37.55.55 0 1 0 1.1 0 2.37 2.37 0 0 1 2.37-2.37.55.55 0 0 0 0-1.1 2.37 2.37 0 0 1-2.37-2.37.55.55 0 1 0-1.1 0 2.37 2.37 0 0 1-2.37 2.37.55.55 0 1 0 0 1.1zm2.92-1.59a3.5 3.5 0 0 0 1 1 3.5 3.5 0 0 0-1 1 3.5 3.5 0 0 0-1-1 3.5 3.5 0 0 0 1-1.01zm4.9 8.66A1.72 1.72 0 1 0 22 15.31 1.72 1.72 0 0 0 23.68 17zm0-2.33a.61.61 0 1 1-.61.61.61.61 0 0 1 .61-.58zM2.55 27.12a1.72 1.72 0 1 0 1.72 1.72 1.72 1.72 0 0 0-1.72-1.72zm0 2.33a.61.61 0 1 1 .61-.61.61.61 0 0 1-.61.61z"/><circle class="cls-1" cx="18.78" cy="16" r=".69"/><circle class="cls-1" cx=".69" cy="24.32" r=".69"/><circle class="cls-1" cx="23.22" cy="5.3" r=".69"/></g></g></svg>