<svg id="Layer_1" xmlns="http://www.w3.org/2000/svg" viewBox="0 0 29.9 31.5"><style>.st0{opacity:.25}.st1{fill:#58595b}.st2{fill:none;stroke:#58595b;stroke-miterlimit:10}</style><title>Asset 13100</title><g id="Layer_2" class="st0"><g id="Layer_2-2"><path class="st1" d="M29.9 23.6c-.1-.2-.2-.3-.4-.4l-4.1-.6-1.8-3.5c-.2-.3-.5-.3-.8-.2-.1 0-.1.1-.2.2l-1.8 3.5-4.1.6c-.3 0-.5.3-.5.6 0 .1.1.2.2.3l2.9 2.8-.7 3.9c-.1.3.1.6.4.6h.3l3.6-1.9 3.6 1.9c.1 0 .2.1.2.1.3 0 .5-.2.5-.5v-.1l-.7-3.9 2.9-2.8c.5-.2.5-.4.5-.6zm-4 2.8c-.1.1-.2.3-.2.5l.6 3.2-3-1.5c-.1-.1-.3-.1-.5 0l-3 1.5.6-3.1c0-.2 0-.4-.2-.5l-2.4-2.2 3.3-.5c.2 0 .3-.1.4-.3l1.5-2.9 1.5 2.9c.1.2.2.3.4.3l3.3.5-2.3 2.1z"/><path class="st1" d="M5.2 1H23v15.8h1V0H0v31.4h15.7v-1H5.2V1zM1 30.4V1h3.2v29.4H1z"/><path class="st1" d="M20.4 12.6V5.2H7.9v7.3h12.5zM8.9 6.3h10.5v5.2H8.9V6.3z"/><path class="st1" d="M10.5 7.3h7.3v1.1h-7.3zm0 2.1h7.3v1.1h-7.3z"/></g></g><path class="st2" d="M0 32.1L30.9-1m-1 32.1L0 0"/></svg>