<svg xmlns="http://www.w3.org/2000/svg" viewBox="0 0 36.06 31.44"><defs><style>.cls-1{fill:#58595b}</style></defs><title>Asset 9100</title><g id="Layer_2" data-name="Layer 2"><g id="Layer_2-2" data-name="Layer 2"><path class="cls-1" d="M33.32 26.22H2.73A2.73 2.73 0 0 1 0 23.49V2.73A2.73 2.73 0 0 1 2.73 0h30.59a2.73 2.73 0 0 1 2.73 2.73v20.76a2.73 2.73 0 0 1-2.73 2.73zM2.73 1.09a1.64 1.64 0 0 0-1.64 1.64v20.76a1.64 1.64 0 0 0 1.64 1.64h30.59A1.64 1.64 0 0 0 35 23.49V2.73a1.64 1.64 0 0 0-1.64-1.64zM25 31.44H11.06a.55.55 0 0 1 0-1.09H25a.55.55 0 0 1 0 1.09z"/><path class="cls-1" d="M18 31.44a.55.55 0 0 1-.55-.55v-5.22a.55.55 0 1 1 1.09 0v5.23a.55.55 0 0 1-.54.54z"/></g></g></svg>