<svg id="Layer_1" xmlns="http://www.w3.org/2000/svg" viewBox="0 0 45 32.1"><style>.st0{fill:#58595b}</style><title>Asset 5100</title><g id="Layer_2"><g id="Layer_2-2"><path class="st0" d="M44.8 9.2C32.5-3.1 12.5-3.1.2 9.2c-.3.3-.3.8 0 1.2.3.3.8.3 1.2 0 11.7-11.6 30.5-11.6 42.2 0 .3.3.8.3 1.2 0 .3-.4.3-.9 0-1.2z"/><path class="st0" d="M5.1 14c-.4.3-.4.8-.2 1.1.3.4.8.4 1.1.2.1 0 .1-.1.2-.2 9-9 23.6-9 32.6 0 .3.3.8.3 1.2 0 .3-.3.3-.8 0-1.2-9.7-9.4-25.3-9.4-34.9.1z"/><path class="st0" d="M22.5 13.6c-4.7 0-9.3 1.9-12.6 5.2-.3.3-.3.8 0 1.2.3.3.8.3 1.2 0 6.3-6.3 16.6-6.3 22.9 0 .3.3.8.3 1.2 0s.3-.8 0-1.2c-3.4-3.3-8-5.2-12.7-5.2zm0 7.8c-3 0-5.4 2.4-5.4 5.4s2.4 5.4 5.4 5.4c3 0 5.4-2.4 5.4-5.4s-2.4-5.4-5.4-5.4zm0 9c-2.1 0-3.7-1.7-3.7-3.7s1.7-3.7 3.7-3.7 3.7 1.7 3.7 3.7c0 2.1-1.6 3.8-3.7 3.7 0 .1 0 .1 0 0z"/></g></g></svg>