<svg id="Layer_1" xmlns="http://www.w3.org/2000/svg" viewBox="0 0 51 46.7"><style>.st0{fill:#d6d7d8}</style><title>Asset 2100</title><g id="Layer_2"><g id="Layer_2-2"><path class="st0" d="M40 24.6V17c0-4.8-2.9-9.2-7.3-11.2-1-.4-2-.8-3-1v-.6c0-2.3-1.9-4.2-4.2-4.2s-4.2 1.9-4.2 4.2v.6c-.9.3-1.8.6-2.7 1-4.4 2-7.3 6.3-7.5 11.2v7.6c.1 5.2-2 10.2-5.7 13.8-.3.3-.3.9 0 1.2.1.1.3.2.5.2l8.1 1.4c1.5.3 2.9.5 4.2.7 2 4.2 7 5.9 11.2 3.9 1.7-.8 3.1-2.2 3.9-3.9 1.3-.2 2.7-.4 4.2-.6l8.1-1.4c.5-.1.8-.5.7-1 0-.2-.1-.3-.2-.5-4-3.5-6.1-8.5-6.1-13.8zM23 4.2c0-1.4 1.1-2.6 2.5-2.6s2.6 1.1 2.6 2.6v.2c-1.7-.3-3.4-.3-5.1 0v-.2zM25.6 45c-2.2 0-4.2-1.1-5.4-2.8 1.8.2 3.6.3 5.4.3 1.8 0 3.6-.1 5.5-.3-1.3 1.7-3.3 2.8-5.5 2.8zm11.5-5.4c-1.6.3-3.1.5-4.5.7l-1.8.2-1.6.1h-.3l-1.4.1h-3.8l-1.3-.1h-.3l-1.5-.1h-.1l-1.8-.2c-1.4-.2-2.9-.4-4.6-.7l-6.5-1.1c3.4-3.8 5.2-8.8 5.1-13.9V17c.2-4.2 2.7-7.9 6.5-9.7 1-.4 2-.8 3-1 2.1-.5 4.3-.5 6.4-.1 1.3.3 2.4.6 3.4 1.1 3.8 1.7 6.2 5.5 6.3 9.7v7.6c0 5.1 1.9 10.1 5.4 13.9l-6.6 1.1z"/><path class="st0" d="M31 9.6c-3.4-1.5-7.2-1.5-10.6 0-1.9.9-5 3.4-5.1 7.3 0 .5.4.8.8.9.5 0 .9-.4.9-.8 0-3.1 2.6-5.1 4.1-5.8 2.9-1.3 6.3-1.3 9.2 0 .4.2.9.1 1.2-.3.2-.4.1-.9-.3-1.2-.2 0-.2 0-.2-.1zM4.1 17.2c-.3-.3-.9-.3-1.2 0-3.9 3.9-3.9 10.1 0 14 .3.4.8.5 1.2.2.4-.3.5-.8.2-1.2-.1-.1-.1-.2-.2-.2-3.2-3.2-3.2-8.3 0-11.5.3-.3.3-.9 0-1.3 0 .1 0 .1 0 0z"/><path class="st0" d="M7.1 29.5c.5 0 .9-.4.9-.8 0-.3-.1-.5-.3-.7-2.2-2.2-2.2-5.7 0-7.9.3-.4.3-.9-.1-1.2-.3-.3-.8-.3-1.1 0-2.8 2.8-2.8 7.4 0 10.3.1.2.3.3.6.3zm41-12.3c-.4-.3-.9-.3-1.2.1-.3.3-.3.8 0 1.1 3.2 3.2 3.2 8.3 0 11.5-.4.3-.4.8-.1 1.2s.8.4 1.2.1l.1-.1c3.9-3.8 3.9-10 0-13.9z"/><path class="st0" d="M43.3 18.9c-.3.3-.3.9 0 1.2 2.2 2.2 2.2 5.7 0 7.9-.4.3-.4.8-.1 1.2s.8.4 1.2.1l.1-.1c2.8-2.8 2.8-7.4 0-10.3-.3-.3-.8-.3-1.2 0z"/></g></g></svg>