<svg id="Layer_1" xmlns="http://www.w3.org/2000/svg" viewBox="0 0 256.7 52.6"><style>.st0{fill:#fff}.st1{fill:none;stroke:#fff;stroke-width:2.0513;stroke-miterlimit:10}</style><title>Asset 11100</title><g id="Layer_2"><g id="Layer_3"><path class="st0" d="M56.4 31.8l2.7-15.4c2.4-1.2 5.1-1.9 7.8-1.9h.1c1.6-.1 3.1.4 4.4 1.3 2-.8 4.2-1.2 6.4-1.3 1.9-.2 3.8.5 5.1 1.9 1.1 1.5 1.5 3.4 1 5.2l-1.8 10.2H78l1.9-10.5c.2-.8.1-1.7-.4-2.5-.8-.7-1.9-1-2.9-.8-1.2 0-2.4.1-3.6.4.4 1 .5 2.1.2 3.2l-1.8 10.2h-4.1l1.9-10.6c.2-.8.1-1.6-.4-2.3-.8-.6-1.9-.9-2.9-.8-1 0-1.9.1-2.9.3l-2.4 13.5h-4.2v-.1zm30.8-17.1h4.4l1.7 11.9 5.9-11.9h4.1L94 32.3c-.9 1.9-2.2 3.7-3.9 5-1 .8-2.3 1.2-3.6 1.3-.9 0-1.7-.2-2.5-.5l.6-3.5c.6.3 1.2.4 1.9.4 1.2 0 2.5-1.4 4-4.1l-3.3-16.2zm16.5 11.6l3.2-18.2h4.1l-1.2 6.6c.9-.2 1.9-.3 2.9-.3 2.5 0 4.4.7 5.5 2.2s1.4 3.6.9 6.4c-.2 1.4-.7 2.8-1.3 4-.5 1-1.1 1.9-1.9 2.7-1.2 1.1-2.7 1.8-4.3 2.2-.6.1-1.1.1-1.7.1-2.4 0-4.2-.6-5.1-1.7-1-1-1.4-2.5-1.1-4zm4 .4c-.2 1.2.7 1.8 2.8 1.8 1.2.1 2.3-.4 3-1.3.8-1.3 1.4-2.8 1.6-4.4.3-1.9.2-3.3-.3-4-.7-.8-1.7-1.3-2.7-1.2-.9 0-1.8.1-2.7.3l-1.7 8.8zm14.1 3.1c-1.1-1.5-1.4-3.7-.9-6.5.3-2.5 1.5-4.8 3.2-6.5 1.8-1.6 4-2.4 6.4-2.3 2.6 0 4.5.8 5.6 2.3s1.4 3.7.9 6.5c-.3 2.5-1.5 4.8-3.2 6.5-1.8 1.6-4 2.4-6.4 2.3-2.6 0-4.4-.8-5.6-2.3zm5-10.8c-1 1.2-1.6 2.7-1.7 4.3-.4 2.1-.3 3.6.2 4.3.7.8 1.7 1.3 2.8 1.2 1.2.1 2.3-.4 3.2-1.2 1-1.2 1.6-2.7 1.7-4.3.4-2.1.3-3.6-.2-4.3-.7-.8-1.7-1.3-2.8-1.2-1.2 0-2.4.4-3.2 1.2zm13 10.8c-1.1-1.5-1.4-3.7-.9-6.5.3-2.5 1.5-4.8 3.2-6.5 1.8-1.6 4-2.4 6.4-2.3 2.6 0 4.5.8 5.6 2.3s1.4 3.7.9 6.5c-.3 2.5-1.5 4.8-3.2 6.5-1.8 1.6-4 2.4-6.4 2.3-2.6 0-4.4-.8-5.6-2.3zm4.9-10.8c-1 1.2-1.6 2.7-1.7 4.3-.4 2.1-.3 3.6.2 4.3.7.8 1.7 1.3 2.8 1.2 1.2.1 2.3-.4 3.2-1.2 1-1.2 1.6-2.7 1.7-4.3.4-2.1.3-3.6-.2-4.3-.7-.8-1.7-1.3-2.8-1.2-1.1 0-2.3.4-3.2 1.2zm11.5 12.8l4.1-23.5h4.1L162.2 21l6.9-6.3h5.5l-8.8 7.6 6.6 9.5h-5.3l-4.5-6.7-1.3 1.2-1 5.6-4.1-.1zm19.2-13.5l.6-3.5h2.9l.8-5.1h4.1l-.9 5.1h4l-.6 3.5h-4l-1.4 8.5c-.1.8-.1 1.3.2 1.5.5.3 1 .4 1.6.4.7 0 1.4-.1 2-.4l-.6 3.4c-.9.3-1.8.5-2.7.5h-.1c-1.4.1-2.8-.4-3.7-1.5-.8-1.2-1.1-2.7-.7-4.1l1.4-8.2-2.9-.1zm11.3 13.5l2.7-15.6c.3-.1.7-.3 1.2-.5s1.6-.4 3.1-.8c1.5-.3 3-.5 4.5-.5l-.6 3.5c-1.5 0-3 .2-4.5.6l-2.3 13.3h-4.1zm10.8-5.6c.1-.9.5-1.7 1.1-2.4.4-.6.9-1 1.4-1.4.7-.5 1.5-.8 2.3-1.1 1.1-.3 2.3-.5 3.5-.4 1 0 2 .1 3 .2.4-2.2-.6-3.3-3-3.3-1.8 0-3.5.3-5.2.9l.6-3.4c1.7-.6 3.6-.9 5.4-.9 2.4 0 4.2.6 5.3 1.9s1.4 3 1 5.4l-.8 4.6c-.3 1.6-1.2 3.1-2.5 4.1-1.6 1.2-3.7 1.8-5.7 1.7-2.5 0-4.3-.6-5.3-1.7-1.1-1.1-1.4-2.7-1.1-4.2zm4.2-.5c-.3 1.8.6 2.7 2.7 2.7 2 0 3.2-.9 3.5-2.6l.4-2.2c-.8-.1-1.6-.2-2.4-.2-2.5.1-3.9.8-4.2 2.3zm13.6-11h4.4l2 13 6.6-13h4.4l-9.6 17.2h-4.3l-3.5-17.2zm16.9 8.8c.3-2.4 1.4-4.7 3-6.6 1.6-1.7 3.9-2.6 6.2-2.5 2.5 0 4.3.8 5.3 2.4 1 1.8 1.4 3.9.9 5.9-.2 1-.3 1.7-.4 2.1h-11.1c-.1 1.5.1 2.5.8 3 .9.5 1.9.8 2.9.8 2.1 0 4.2-.5 6.1-1.3l-.6 3.3c-2.1 1-4.4 1.6-6.7 1.5-.7 0-1.4-.1-2.1-.2-.7-.1-1.3-.4-1.9-.8-.6-.4-1.2-.9-1.6-1.5-.5-.8-.8-1.6-.8-2.5-.3-1.2-.3-2.4 0-3.6zm4.4-1.5h6.9c.1-1-.1-2.1-.5-3-.4-.8-1.3-1.2-2.2-1.2-1 0-1.9.3-2.6 1-.8.9-1.4 2-1.6 3.2zm11.8 9.8l4.2-23.6h4.1l-4.2 23.6h-4.1z"/><path class="st1" d="M28.5 28.3c-1.3-.5-2.7-.7-4.1-.6-3.9.5-4.7 1.6-5.3 2.1-1.9 1.3-2.3 4.5-2.3 5.1-.1 1.8.1 3.6.4 5.4.5 2.1 1 4.2 1.7 6.3.7 2.3 1.7 4.6 1.7 4.6s2.2-1.3 4.2-2.6c1.8-1.2 3.5-2.5 5.2-3.9 1.4-1.1 2.6-2.5 3.7-3.9.3-.5 2-3.2 1.3-5.4-.2-.8-.2-2.1-2.9-4.9-1-1.1-2.3-1.8-3.6-2.2z"/><path class="st1" d="M30.8 26.5c-.8 1.1-1.4 2.4-1.8 3.7-.6 3.9.1 5 .4 5.7.7 2.2 3.7 3.5 4.1 3.8 1.7.6 3.5 1 5.2 1.2 2.2.2 4.3.3 6.5.3 2.4 0 5-.2 5-.2s-.5-2.5-1.2-4.8c-.6-2.1-1.3-4.1-2.1-6.1-.7-1.7-1.6-3.2-2.7-4.6-.3-.4-2.5-2.9-4.8-2.9-.8-.1-2.1-.4-5.6 1.3-1.1.5-2.2 1.5-3 2.6z"/><path class="st1" d="M31.4 25.2c1 1 2.2 1.7 3.5 2.2 3.8 1.1 4.9.5 5.7.3 2.3-.4 4-3.2 4.2-3.7.8-1.6 1.4-3.3 1.8-5.1.5-2.1.8-4.2 1.1-6.4.3-2.3.4-5 .4-5s-2.7.3-5 .6c-2.1.3-4.3.8-6.3 1.4-1.7.5-3.4 1.2-5 2.1-.5.3-3.1 2.1-3.5 4.4-.2.8-.7 2 .6 5.7.6 1.4 1.4 2.5 2.5 3.5z"/><path class="st1" d="M27.1 23.4c1.3-.6 2.4-1.3 3.4-2.3 2.4-3.1 2.3-4.4 2.4-5.2.5-2.3-1.5-4.9-1.8-5.3-1.2-1.4-2.5-2.6-4-3.6-1.8-1.2-3.6-2.4-5.5-3.4-2.1-1.2-4.5-2.2-4.5-2.2s-.8 2.5-1.3 4.8c-.5 2.1-.9 4.2-1.2 6.4-.2 1.8-.2 3.6 0 5.4.1.5.8 3.7 2.8 4.9.6.4 1.6 1.4 5.5 1.6 1.5-.2 2.9-.5 4.2-1.1z"/><path class="st1" d="M25.8 25.4c-.1-1.4-.5-2.7-1.2-4-2.1-3.3-3.3-3.7-4.1-4-2-1.2-5.1-.2-5.6 0-1.7.7-3.3 1.5-4.7 2.6-1.7 1.3-3.4 2.7-5 4.1-1.8 1.6-3.6 3.5-3.6 3.5s2.1 1.5 4.1 2.8c1.8 1.1 3.8 2.2 5.7 3.2 1.6.8 3.3 1.4 5.1 1.7.5.1 3.7.5 5.5-1 .6-.5 1.8-1 3.3-4.6.5-1.4.6-2.9.5-4.3z"/><path class="st1" d="M28.5 28.3c-1.3-.5-2.7-.7-4.1-.6-3.9.5-4.7 1.6-5.3 2.1-1.9 1.3-2.3 4.5-2.3 5.1-.1 1.8.1 3.6.4 5.4.5 2.1 1 4.2 1.7 6.3.7 2.3 1.7 4.6 1.7 4.6s2.2-1.3 4.2-2.6c1.8-1.2 3.5-2.5 5.2-3.9 1.4-1.1 2.6-2.5 3.7-3.9.3-.5 2-3.2 1.3-5.4-.2-.8-.2-2.1-2.9-4.9-1-1.1-2.3-1.8-3.6-2.2z"/><path class="st1" d="M29 30.2c-.6 3.9.1 5 .4 5.7.7 2.2 3.7 3.5 4.1 3.8 1.7.6 3.5 1 5.2 1.2 2.2.2 4.3.3 6.5.3 2.4 0 5-.2 5-.2s-.5-2.5-1.2-4.8c-.6-2.1-1.3-4.1-2.1-6.1-.7-1.7-1.6-3.2-2.7-4.6-.3-.4-2.5-2.9-4.8-2.9-.8-.1-2.1-.4-5.6 1.3-1.2.7-2.2 1.7-3 2.8m-3.7-3.3c1.3-.6 2.4-1.3 3.4-2.3 2.4-3.1 2.3-4.4 2.4-5.2.5-2.3-1.5-4.9-1.8-5.3-1.2-1.4-2.5-2.6-4-3.6-1.8-1.2-3.6-2.4-5.5-3.4-2.1-1.2-4.5-2.2-4.5-2.2s-.8 2.5-1.3 4.8c-.5 2.1-.9 4.2-1.2 6.4-.2 1.8-.2 3.6 0 5.4.1.5.8 3.7 2.8 4.9.6.4 1.6 1.4 5.5 1.6 1.5-.2 2.9-.5 4.2-1.1zm-5 10.8c.6-.5 1.8-1 3.3-4.6.3-1.3.5-2.7.4-4"/><path class="st1" d="M24.7 21.4c-2.1-3.3-3.3-3.7-4.1-4-2-1.2-5.1-.2-5.6 0-1.7.7-3.3 1.5-4.7 2.6-1.7 1.3-3.4 2.7-5 4.1-1.8 1.6-3.6 3.5-3.6 3.5s2.1 1.5 4.1 2.8c1.8 1.2 3.7 2.2 5.7 3.2m16.8-17.4c-.2.8-.7 2 .6 5.7.4.8.8 1.5 1.4 2.1m4.5 3.4c3.8 1.1 4.9.5 5.7.3 2.3-.4 4-3.2 4.2-3.7.8-1.6 1.4-3.3 1.8-5.1.5-2.1.8-4.3 1.1-6.4.3-2.3.4-5 .4-5s-2.7.3-5 .6c-2.1.3-4.3.8-6.3 1.4"/></g></g></svg>