<svg id="Layer_1" xmlns="http://www.w3.org/2000/svg" viewBox="0 0 53.8 52.1"><style>.st0{stroke:#05a2cc}.st0,.st1,.st2,.st3,.st4{fill:none;stroke-width:2.0513;stroke-miterlimit:10}.st1{stroke:#0ec8db}.st2{stroke:#0fd8a8}.st3{stroke:#02ce68}.st4{stroke:#05ccaf}</style><title>Asset 11100</title><g id="Layer_3"><path class="st0" d="M27.1 31c-1.1-.9-2.3-1.5-3.7-1.9-3.9-.8-5 0-5.7.3-2.2.6-3.6 3.5-3.8 4.1-.7 1.7-1.1 3.4-1.3 5.2-.2 2.1-.4 4.3-.4 6.5-.1 2.4.1 4.9.1 4.9s2.5-.5 4.8-1.1c2.1-.6 4.1-1.3 6.2-2 1.7-.6 3.3-1.5 4.7-2.5.4-.4 2.9-2.4 3-4.7.1-.8.5-2.1-1.2-5.6-.6-1.3-1.6-2.4-2.7-3.2z"/><path class="st1" d="M29.8 30.1c-1.1.8-2.1 1.8-2.9 2.9-1.8 3.5-1.5 4.8-1.4 5.5 0 2.3 2.4 4.5 2.7 4.9 1.4 1.1 3 2.1 4.5 2.8 2 .9 4 1.7 6.1 2.4 2.3.8 4.8 1.4 4.8 1.4s.3-2.5.4-4.9c.1-2.2.1-4.3 0-6.5-.1-1.8-.5-3.5-1.1-5.2-.2-.5-1.4-3.5-3.6-4.3-.7-.3-1.9-1-5.7-.6-1.3.2-2.7.8-3.8 1.6z"/><path class="st2" d="M30.8 29c.6 1.3 1.5 2.3 2.6 3.2 3.3 2.3 4.5 2 5.3 2.1 2.3.4 4.8-1.8 5.2-2.2 1.3-1.3 2.4-2.7 3.3-4.3 1.1-1.8 2.1-3.7 3.1-5.7 1-2.1 2-4.6 2-4.6s-2.7-.6-4.9-1c-2.1-.4-4.3-.6-6.4-.7-1.8-.1-3.6.1-5.4.4-.6.1-3.6 1-4.7 3.1-.4.7-1.3 1.7-1.2 5.6 0 1.5.4 2.8 1.1 4.1z"/><path class="st3" d="M27.3 25.9c1.4-.2 2.7-.5 4-1.1 3.3-2.2 3.6-3.4 3.9-4.2 1.2-2 .1-5.1 0-5.6-.7-1.7-1.5-3.3-2.6-4.7-1.3-1.7-2.6-3.4-4.1-5-1.6-1.8-3.6-3.5-3.6-3.5S23.3 4 22.1 6c-1.1 1.8-2.2 3.7-3.2 5.7-.8 1.6-1.3 3.3-1.7 5.1-.1.5-.4 3.8 1.1 5.5.4.6 1.1 1.8 4.7 3.3 1.5.3 2.9.5 4.3.3z"/><path class="st4" d="M25.4 27.4c.4-1.4.4-2.7.1-4.2-.9-3.8-1.9-4.6-2.6-5.1-1.5-1.8-4.8-1.8-5.3-1.8-1.8.1-3.6.4-5.3 1-2 .7-4.1 1.5-6 2.3-2.2.9-4.5 2.2-4.5 2.2s1.5 2.1 3 4c1.4 1.6 2.9 3.3 4.4 4.8 1.3 1.3 2.7 2.4 4.3 3.2.4.3 3.3 1.7 5.5.8.7-.3 2-.4 4.6-3.3.9-1.1 1.5-2.5 1.8-3.9z"/><path class="st0" d="M27.1 31c-1.1-.9-2.3-1.5-3.7-1.9-3.9-.8-5 0-5.7.3-2.2.6-3.6 3.5-3.8 4.1-.7 1.7-1.1 3.4-1.3 5.2-.2 2.1-.4 4.3-.4 6.5-.1 2.4.1 4.9.1 4.9s2.5-.5 4.8-1.1c2.1-.6 4.1-1.3 6.2-2 1.7-.6 3.3-1.5 4.7-2.5.4-.4 2.9-2.4 3-4.7.1-.8.5-2.1-1.2-5.6-.6-1.3-1.6-2.4-2.7-3.2z"/><path class="st1" d="M27 33c-1.8 3.5-1.5 4.8-1.4 5.5 0 2.3 2.4 4.5 2.7 4.9 1.4 1.1 3 2.1 4.5 2.8 2 .9 4 1.7 6.1 2.4 2.3.8 4.8 1.4 4.8 1.4s.3-2.5.4-4.9c.1-2.2.1-4.3 0-6.5-.1-1.8-.5-3.5-1.1-5.2-.2-.5-1.4-3.5-3.6-4.3-.7-.3-1.9-1-5.7-.6-1.4.3-2.6.9-3.7 1.7"/><path class="st3" d="M27.3 25.9c1.4-.2 2.7-.5 4-1.1 3.3-2.2 3.6-3.4 3.9-4.2 1.2-2 .1-5.1 0-5.6-.7-1.7-1.5-3.3-2.6-4.7-1.3-1.7-2.6-3.4-4.1-5-1.6-1.8-3.6-3.5-3.6-3.5S23.3 4 22.1 6c-1.1 1.8-2.2 3.7-3.2 5.7-.8 1.6-1.3 3.3-1.7 5.1-.1.5-.4 3.8 1.1 5.5.4.6 1.1 1.8 4.7 3.3 1.5.3 2.9.5 4.3.3z"/><path class="st4" d="M19.1 34.6c.7-.3 2-.4 4.6-3.3.7-1.1 1.3-2.4 1.7-3.7m.3-4.3c-.9-3.8-1.9-4.6-2.6-5.1-1.5-1.8-4.8-1.8-5.3-1.8-1.8.1-3.6.4-5.3 1-2 .7-4.1 1.5-6 2.3-2.2.9-4.5 2.2-4.5 2.2s1.5 2.1 3 4c1.3 1.7 2.8 3.3 4.4 4.8"/><path class="st2" d="M30.7 19.5c-.4.7-1.3 1.7-1.2 5.6.1.9.3 1.7.7 2.4m3.1 4.7c3.3 2.3 4.5 2 5.3 2.1 2.3.4 4.8-1.8 5.2-2.2 1.3-1.3 2.4-2.7 3.3-4.3 1.1-1.8 2.1-3.8 3.1-5.7 1-2.1 2-4.6 2-4.6s-2.7-.6-4.9-1c-2.1-.4-4.3-.6-6.4-.7"/></g></svg>