<svg xmlns="http://www.w3.org/2000/svg" viewBox="0 0 41.93 31.44"><defs><style>.cls-1{fill:#58595b;}</style></defs><title>Asset 7100</title><g id="Layer_2" data-name="Layer 2"><g id="Layer_2-2" data-name="Layer 2"><g id="_Group_" data-name="&lt;Group&gt;"><path class="cls-1" d="M38,14.74v-7A7.72,7.72,0,0,0,30.29,0H11.64A7.72,7.72,0,0,0,3.93,7.71v7A5.89,5.89,0,0,0,0,20.29v1.35a5.88,5.88,0,0,0,3.28,5.27v4.54H4.59V27.37a5.87,5.87,0,0,0,1.29.14H36.05a5.87,5.87,0,0,0,1.29-.14v4.08h1.31V26.91a5.88,5.88,0,0,0,3.28-5.27V20.29A5.89,5.89,0,0,0,38,14.74Zm-32.75-7a6.4,6.4,0,0,1,6.4-6.4H30.29a6.4,6.4,0,0,1,6.4,6.4v5.2a5.29,5.29,0,0,0-2.62-1.61v-2a2.79,2.79,0,0,0-2.79-2.79H25.06a2.79,2.79,0,0,0-2.79,2.79v1.79H19.65V9.34a2.79,2.79,0,0,0-2.79-2.79H10.65A2.79,2.79,0,0,0,7.86,9.34v2a5.29,5.29,0,0,0-2.62,1.61Zm27.51,4.74a4,4,0,0,1,3.41,2H5.76a4,4,0,0,1,3.41-2ZM9.17,11.13V9.34a1.48,1.48,0,0,1,1.48-1.48h6.21a1.48,1.48,0,0,1,1.48,1.48v1.79H9.17Zm23.58,0H23.58V9.34a1.48,1.48,0,0,1,1.48-1.48h6.21a1.48,1.48,0,0,1,1.48,1.48v1.79Zm3.3,15.07H5.88a4.57,4.57,0,0,1-4.57-4.57V20.29a4.57,4.57,0,0,1,4.57-4.57H36.05a4.57,4.57,0,0,1,4.57,4.57v1.35h0A4.57,4.57,0,0,1,36.05,26.2Z"/><rect class="cls-1" x="4.59" y="22.93" width="32.75" height="1.31"/></g></g></g></svg>