<?xml version="1.0" encoding="utf-8"?>
<!-- Generator: Adobe Illustrator 21.0.0, SVG Export Plug-In . SVG Version: 6.00 Build 0)  -->
<svg version="1.1" id="Layer_1" xmlns="http://www.w3.org/2000/svg" xmlns:xlink="http://www.w3.org/1999/xlink" x="0px" y="0px"
	 viewBox="0 0 45 31.4" style="enable-background:new 0 0 45 31.4;" xml:space="preserve">
<style type="text/css">
	.st0{fill:#58595B;}
</style>
<title>Asset 11100</title>
<g id="Layer_2">
	<g id="Layer_2-2">
		<path class="st0" d="M12.1,27.6c1.9,0,3.4-1.5,3.4-3.4c0-1.9-1.5-3.4-3.4-3.4s-3.4,1.5-3.4,3.4S10.2,27.6,12.1,27.6L12.1,27.6z
			 M12.1,22.3c1.1,0,1.9,0.9,1.9,1.9s-0.9,1.9-1.9,1.9s-1.9-0.9-1.9-1.9C10.2,23.2,11,22.3,12.1,22.3C12.1,22.3,12.1,22.3,12.1,22.3
			L12.1,22.3z"/>
		<path class="st0" d="M32.9,20.9c-1.9,0-3.4,1.5-3.4,3.4s1.5,3.4,3.4,3.4c1.9,0,3.4-1.5,3.4-3.4S34.8,20.9,32.9,20.9L32.9,20.9z
			 M32.9,26.1c-1.1,0-1.9-0.9-1.9-1.9c0-1.1,0.9-1.9,1.9-1.9c1.1,0,1.9,0.9,1.9,1.9v0C34.9,25.3,34,26.1,32.9,26.1z"/>
		<path class="st0" d="M13.2,4.3h2.3c0.4,0,0.7-0.3,0.7-0.7s-0.3-0.7-0.7-0.7h-2.3C11.9,3,10.8,3.5,9.9,4.3l-5.7,6.1
			c-0.3,0.3-0.3,0.7,0,1c0.1,0.1,0.3,0.2,0.5,0.2h27.8c0.4,0,0.7-0.3,0.7-0.7c0-0.1,0-0.2-0.1-0.3l-3-6.3c-0.5-0.8-1.3-1.3-2.2-1.4
			h-9.6c-0.4,0-0.7,0.3-0.7,0.7v6.6H6.3L11,5.3C11.6,4.7,12.4,4.4,13.2,4.3L13.2,4.3z M19,4.3h9c0.3,0.1,0.6,0.3,0.8,0.5l2.5,5.3H19
			L19,4.3L19,4.3z"/>
		<path class="st0" d="M45,17.9c-0.1-2.7-1.8-5.1-4.4-6.1l-3.4-1.1c-0.7-0.3-1.2-0.8-1.6-1.4l-3-6.3c-0.9-1.8-2.8-2.9-4.8-3H13.2
			c-2,0.1-3.9,0.9-5.4,2.3l-6.6,7c-0.7,0.8-1.1,1.9-1.2,3v9c0,2,1.5,3.6,3.5,3.7c0,0,0.1,0,0.1,0h1.3c0.4,3.9,3.9,6.8,7.8,6.4
			c3.4-0.3,6.1-3,6.4-6.4h4.4c0.4,0,0.7-0.3,0.7-0.7c0-0.4-0.3-0.7-0.7-0.7h-4.3c-0.4-3.9-3.9-6.8-7.8-6.4c-3.4,0.3-6.1,3-6.4,6.4
			H3.6c-1.2,0-2.2-1-2.2-2.2v-9c0-0.7,0.3-1.4,0.8-2l6.6-7c1.2-1.1,2.7-1.8,4.3-1.9h14.8c1.4,0.1,2.8,0.8,3.5,2.1l3,6.3
			c0.5,1,1.3,1.7,2.4,2.1l2.7,0.9c-0.5,2.6,1.3,5.1,3.9,5.6c0,0,0.1,0,0.1,0v2.8c0.1,1.1-0.7,2-1.8,2.2h-1.7
			c-0.4-3.9-3.9-6.8-7.9-6.4c-3.9,0.4-6.8,3.9-6.4,7.9s3.9,6.8,7.9,6.4c3.4-0.3,6.1-3,6.4-6.4h1.7c1.9-0.1,3.3-1.7,3.2-3.6L45,17.9
			L45,17.9z M12,18.5c3.2,0,5.7,2.6,5.7,5.7s-2.6,5.7-5.7,5.7s-5.7-2.6-5.7-5.7C6.3,21,8.9,18.5,12,18.5
			C12.1,18.5,12.1,18.5,12,18.5L12,18.5z M32.9,29.9c-3.2,0-5.7-2.6-5.7-5.7s2.6-5.7,5.7-5.7c3.2,0,5.7,2.6,5.7,5.7
			C38.7,27.4,36.1,29.9,32.9,29.9z M40.9,13.8c0-0.1,0-0.2,0-0.3c1.3,0.8,2.2,2.1,2.6,3.6C42,16.7,40.9,15.3,40.9,13.8L40.9,13.8z"
			/>
	</g>
</g>
</svg>
