<?xml version="1.0" encoding="utf-8"?>
<!-- Generator: Adobe Illustrator 21.0.0, SVG Export Plug-In . SVG Version: 6.00 Build 0)  -->
<svg version="1.1" id="Layer_1" xmlns="http://www.w3.org/2000/svg" xmlns:xlink="http://www.w3.org/1999/xlink" x="0px" y="0px"
	 viewBox="0 0 35.3 31.5" style="enable-background:new 0 0 35.3 31.5;" xml:space="preserve">
<style type="text/css">
	.st0{opacity:0.25;}
	.st1{fill:#58595B;}
	.st2{fill:none;stroke:#58595B;stroke-miterlimit:10;}
</style>
<title>Asset 4100</title>
<g id="Layer_2" class="st0">
	<g id="Layer_2-2">
		<path class="st1" d="M34.9,12.4L18.2,0.2c-0.3-0.2-0.8-0.2-1.1,0L0.4,12.4C0,12.8,0,13.3,0.3,13.7c0.3,0.3,0.8,0.4,1.2,0.2L17.6,2
			l16.2,11.8c0.4,0.3,1,0.1,1.3-0.3C35.3,13.2,35.2,12.7,34.9,12.4z"/>
		<path class="st1" d="M30.5,14.1c-0.5,0-0.9,0.4-0.9,0.9l0,0v14.6h-7.3v-8c0-2.5-2.1-4.6-4.6-4.6S13,19.1,13,21.6v8H5.7V15
			c-0.1-0.5-0.5-0.9-1-0.8c-0.4,0-0.8,0.4-0.8,0.8v15.5c0,0.5,0.4,0.9,0.9,0.9l0,0H14c0.5,0,0.9-0.4,0.9-0.9c0,0,0,0,0-0.1v-8.9
			c0-1.5,1.2-2.8,2.8-2.8s2.8,1.2,2.8,2.8v8.9c0,0,0,0,0,0.1c0,0.5,0.4,0.8,0.9,0.9h9.2c0.5,0,0.9-0.4,0.9-0.9l0,0V15
			C31.4,14.5,31,14.1,30.5,14.1z"/>
	</g>
</g>
<g>
	<line class="st2" x1="0" y1="32.1" x2="35.2" y2="-0.9"/>
</g>
<g>
	<line class="st2" x1="35.2" y1="31.2" x2="0" y2="0"/>
</g>
</svg>
