<svg xmlns="http://www.w3.org/2000/svg" viewBox="0 0 35.28 31.45"><defs><style>.cls-1{fill:#58595b;}</style></defs><title>Asset 4100</title><g id="Layer_2" data-name="Layer 2"><g id="Layer_2-2" data-name="Layer 2"><path class="cls-1" d="M34.9,12.42,18.18.18a.92.92,0,0,0-1.08,0L.38,12.42A.92.92,0,0,0,1.46,13.9L17.64,2.05,33.82,13.9a.92.92,0,0,0,1.08-1.48Z"/><path class="cls-1" d="M30.47,14.11a.92.92,0,0,0-.92.92V29.61H22.22v-8a4.58,4.58,0,1,0-9.17,0v8H5.72V15a.92.92,0,0,0-1.83,0V30.53a.92.92,0,0,0,.92.92H14a.92.92,0,0,0,.91-.85.69.69,0,0,0,0-.07V21.65a2.75,2.75,0,1,1,5.5,0v8.88a.67.67,0,0,0,0,.07.92.92,0,0,0,.91.85h9.17a.92.92,0,0,0,.92-.92V15A.92.92,0,0,0,30.47,14.11Z"/></g></g></svg>