<?xml version="1.0" encoding="utf-8"?>
<!-- Generator: Adobe Illustrator 21.0.0, SVG Export Plug-In . SVG Version: 6.00 Build 0)  -->
<svg version="1.1" id="Layer_1" xmlns="http://www.w3.org/2000/svg" xmlns:xlink="http://www.w3.org/1999/xlink" x="0px" y="0px"
	 viewBox="0 0 45 31.4" style="enable-background:new 0 0 45 31.4;" xml:space="preserve">
<style type="text/css">
	.st0{fill:#FFFFFF;stroke:#58595B;stroke-width:0.75;stroke-miterlimit:10;}
	.st1{fill:none;stroke:#58595B;stroke-width:0.75;stroke-miterlimit:10;}
	.st2{fill:#58595B;}
</style>
<title>Asset 11100</title>
<g>
	<path class="st0" d="M42.6,28.6H23.8c-0.8,0-1.4-0.6-1.4-1.4V1.4C22.4,0.6,23,0,23.8,0h18.8C43.4,0,44,0.6,44,1.4v25.7
		C44.1,28,43.4,28.6,42.6,28.6z"/>
	<path class="st0" d="M27.5,18.6v-6.5c0-1.4-1.1-2.5-2.5-2.5H8.3c-1.4,0-2.5,1.1-2.5,2.5v6.6L1.5,23c0,0-0.2,0.1-0.2,1.4
		c0,0.8-0.4,4.5,2.7,4.5c3.5,0,26,0,26,0s2.4-0.1,2.4-1.8c0-1.8,0-2.9,0-2.9s0.1-1-0.4-1.4C31,22,27.5,18.6,27.5,18.6z"/>
	<path class="st1" d="M25.9,18.5v-4.6c0-1.4-1.1-2.5-2.5-2.5H10.6c-1.4,0-2.5,1.1-2.5,2.5v4.8L25.9,18.5z"/>
	<path class="st0" d="M13.9,19.9h-2.8c-1.3,0-2.3-1-2.3-2.3l0,0c0-1.3,1-2.3,2.3-2.3h2.8c1.3,0,2.3,1,2.3,2.3l0,0
		C16.2,18.8,15.2,19.9,13.9,19.9z"/>
	<path class="st0" d="M22.6,19.9h-2.8c-1.3,0-2.3-1-2.3-2.3l0,0c0-1.3,1-2.3,2.3-2.3h2.8c1.3,0,2.3,1,2.3,2.3l0,0
		C24.9,18.8,23.9,19.9,22.6,19.9z"/>
	<line class="st1" x1="1.3" y1="23.9" x2="32.3" y2="23.9"/>
	<line class="st1" x1="4.4" y1="20.1" x2="29.1" y2="20.1"/>
	<line class="st1" x1="5.8" y1="18.7" x2="8.1" y2="18.7"/>
	<line class="st1" x1="25.9" y1="18.5" x2="27.5" y2="18.5"/>
	<polyline class="st1" points="3.9,28.9 3.9,31.4 5.5,31.4 6.2,28.9 	"/>
	<polyline class="st1" points="27.5,28.9 28.4,31.4 29.8,31.4 29.8,28.9 	"/>
	<circle class="st2" cx="35.9" cy="14.8" r="0.6"/>
	<circle class="st2" cx="30.1" cy="14.8" r="0.6"/>
	<line class="st1" x1="33.1" y1="0" x2="33.1" y2="28.6"/>
	<polyline class="st1" points="24.4,29.1 24.4,31.4 25.9,31.4 26.7,29.1 	"/>
	<polyline class="st1" points="39.6,28.6 40.7,31.4 41.6,31.4 41.6,28.6 	"/>
</g>
</svg>
