<svg xmlns="http://www.w3.org/2000/svg" viewBox="0 0 21.82 20"><defs><style>.cls-1{fill:#58595b;}</style></defs><title>Asset 4</title><g id="Layer_2" data-name="Layer 2"><g id="Layer_2-2" data-name="Layer 2"><path class="cls-1" d="M20,15.6l-3.47-1.74A1,1,0,0,1,16,13V11.77l.26-.35a8.32,8.32,0,0,0,1.07-2.11A1.44,1.44,0,0,0,18.18,8V6.55a1.45,1.45,0,0,0-.36-1V3.66a3.26,3.26,0,0,0-.76-2.37A4.58,4.58,0,0,0,13.45,0a4.58,4.58,0,0,0-3.6,1.28A3.16,3.16,0,0,0,9.1,3a4.72,4.72,0,0,0-2.19-.49c-3.78,0-4,3.22-4,3.27V7.48a1.27,1.27,0,0,0-.36.85V9.59a1.3,1.3,0,0,0,.48,1,5.57,5.57,0,0,0,1.33,2.29v1a.79.79,0,0,1-.43.7L1.5,16.09A2.88,2.88,0,0,0,0,18.62V20H21.82V18.53A3.26,3.26,0,0,0,20,15.6ZM5.09,18.46v.81H.73v-.65a2.16,2.16,0,0,1,1.14-1.9L4.29,15.2a1.51,1.51,0,0,0,.79-1.32V12.57L5,12.46A4.84,4.84,0,0,1,3.7,10.3l0-.14-.12-.08a.58.58,0,0,1-.27-.49V8.33a.64.64,0,0,1,.24-.43l.12-.11v-2c0-.1.2-2.57,3.27-2.57a3.79,3.79,0,0,1,2.18.6V5.59a1.45,1.45,0,0,0-.36,1V8a1.46,1.46,0,0,0,0,.32s0,.08,0,.12a1.44,1.44,0,0,0,.06.18h0a1.46,1.46,0,0,0,.4.5v0l.07.25,0,.09,0,.05,0,.12.07.2,0,.09.09.22,0,.05,0,0,0,.06.11.23,0,0,.07.13.12.21.06.1.15.25,0,0,.23.33,0,.06,0,0V13a1,1,0,0,1-.5.84l-1,.52H8.91l-.07.14-2,1.12A3.28,3.28,0,0,0,5.09,18.46Zm16,.81H5.82v-.81a2.55,2.55,0,0,1,1.33-2.24l3.24-1.77A1.69,1.69,0,0,0,11.27,13V11.5h0l-.07-.08v0l-.06-.08h0l-.07-.09h0l-.2-.29h0l-.11-.18h0c-.08-.14-.17-.29-.26-.47h0L10.33,10h0l0,0h0l-.06-.14,0-.05-.06-.15-.11-.31,0-.06v0c0-.11-.07-.23-.09-.35l0-.14-.12-.08A.73.73,0,0,1,9.45,8V6.55A.72.72,0,0,1,9.7,6l.12-.11V3.51h0a2.52,2.52,0,0,1,.59-1.74,3.91,3.91,0,0,1,3.06-1,3.92,3.92,0,0,1,3,1,2.56,2.56,0,0,1,.59,1.83V5.9l.12.11a.72.72,0,0,1,.24.54V8a.72.72,0,0,1-.52.69l-.18.06-.06.18a7.61,7.61,0,0,1-1,2.08,4.78,4.78,0,0,1-.3.39l-.09.1V13a1.68,1.68,0,0,0,.93,1.51l3.47,1.74a2.54,2.54,0,0,1,1.41,2.28Z"/></g></g></svg>