<?xml version="1.0" encoding="utf-8"?>
<!-- Generator: Adobe Illustrator 21.0.0, SVG Export Plug-In . SVG Version: 6.00 Build 0)  -->
<svg version="1.1" id="Layer_1" xmlns="http://www.w3.org/2000/svg" xmlns:xlink="http://www.w3.org/1999/xlink" x="0px" y="0px"
	 viewBox="0 0 32.3 31.4" style="enable-background:new 0 0 32.3 31.4;" xml:space="preserve">
<style type="text/css">
	.st0{opacity:0.25;}
	.st1{fill:#58595B;}
	.st2{fill:none;stroke:#58595B;stroke-miterlimit:10;}
</style>
<title>Asset 12100</title>
<g id="Layer_2" class="st0">
	<g id="Layer_2-2">
		<path class="st1" d="M31.8,20.2c-0.5-0.4-1.2-0.4-1.7,0c-2.2,1.7-5,2.6-7.8,2.6c-0.8,0-1.5-0.1-2.3-0.2c-0.3-0.1-0.6,0.1-0.6,0.4
			s0.1,0.6,0.4,0.6l0,0c0.8,0.1,1.7,0.2,2.5,0.2c3,0,6-1,8.4-2.9c0.1-0.1,0.3-0.1,0.4,0.1c0.1,0.1,0.1,0.2,0,0.3
			c-3.5,7.7-12.6,11.1-20.3,7.6S-0.2,16.4,3.3,8.7c1.5-3.3,4.2-6,7.6-7.6c0.1-0.1,0.3,0,0.4,0.1c0,0.1,0,0.2,0,0.3
			c-4.7,6.1-3.5,14.8,2.6,19.5c1.2,0.9,2.6,1.7,4.1,2.1c0.2,0.2,0.6,0.1,0.8-0.1c0.2-0.2,0.1-0.6-0.1-0.8c-0.1-0.1-0.2-0.1-0.3-0.1
			C11.6,20,7.9,12.8,10.1,6.1c0.5-1.4,1.1-2.7,2-3.8c0.5-0.6,0.4-1.5-0.2-2c-0.4-0.3-1-0.4-1.4-0.2C2.2,3.9-1.4,13.6,2.3,21.9
			S15.8,33.7,24.1,30c3.6-1.6,6.5-4.5,8.1-8.1C32.4,21.3,32.3,20.6,31.8,20.2z"/>
		<path class="st1" d="M15.9,9.9c1.3,0,2.4,1.1,2.4,2.4c0,0.3,0.2,0.6,0.5,0.6c0.3,0,0.6-0.2,0.6-0.6c0-1.3,1.1-2.4,2.4-2.4l0,0
			c0.3,0,0.5-0.2,0.5-0.6S22,8.8,21.7,8.8c-1.3,0-2.4-1.1-2.4-2.4c0-0.3-0.2-0.6-0.5-0.6c-0.3,0-0.6,0.2-0.6,0.6
			c0,1.3-1.1,2.4-2.4,2.4c-0.3,0-0.6,0.2-0.6,0.6S15.6,9.9,15.9,9.9z M18.8,8.3c0.3,0.4,0.6,0.7,1,1c-0.4,0.3-0.7,0.6-1,1
			c-0.3-0.4-0.6-0.7-1-1C18.2,9.1,18.5,8.7,18.8,8.3L18.8,8.3z"/>
		<path class="st1" d="M23.7,17c0.9,0,1.7-0.7,1.8-1.7s-0.7-1.7-1.7-1.8c-0.9,0-1.7,0.7-1.8,1.7c0,0,0,0,0,0.1
			C22,16.2,22.8,17,23.7,17z M23.7,14.7c0.3,0,0.6,0.3,0.6,0.6c0,0.3-0.3,0.6-0.6,0.6c-0.3,0-0.6-0.3-0.6-0.6
			C23.1,15,23.4,14.7,23.7,14.7L23.7,14.7z"/>
		<path class="st1" d="M2.5,27.1c-0.9,0-1.7,0.8-1.7,1.7c0,0.9,0.8,1.7,1.7,1.7s1.7-0.8,1.7-1.7l0,0C4.3,27.9,3.5,27.1,2.5,27.1z
			 M2.5,29.5c-0.3,0-0.6-0.3-0.6-0.6c0-0.3,0.3-0.6,0.6-0.6s0.6,0.3,0.6,0.6S2.9,29.5,2.5,29.5C2.6,29.5,2.6,29.5,2.5,29.5z"/>
		<circle class="st1" cx="18.8" cy="16" r="0.7"/>
		<circle class="st1" cx="0.7" cy="24.3" r="0.7"/>
		<circle class="st1" cx="23.2" cy="5.3" r="0.7"/>
	</g>
</g>
<g>
	<line class="st2" x1="0" y1="32.1" x2="32.3" y2="0"/>
</g>
<g>
	<line class="st2" x1="32.3" y1="31.1" x2="0" y2="0"/>
</g>
</svg>
