<svg xmlns="http://www.w3.org/2000/svg" viewBox="0 0 37.43 31.44"><defs><style>.cls-1{fill:#58595b;}</style></defs><title>Asset 6100</title><g id="Layer_2" data-name="Layer 2"><g id="Layer_2-2" data-name="Layer 2"><path class="cls-1" d="M35.7,24.81a2.45,2.45,0,0,1-4,0,.62.62,0,1,0-1,.78,3.69,3.69,0,0,0,6,0,.62.62,0,1,0-1-.78Z"/><path class="cls-1" d="M26.06,22.41a.62.62,0,1,0-1-.78,2.45,2.45,0,0,1-4,0,.62.62,0,1,0-1,.78,3.69,3.69,0,0,0,6,0Z"/><path class="cls-1" d="M20.1,25.41a2.45,2.45,0,0,1-4,0,.62.62,0,1,0-1,.78,3.69,3.69,0,0,0,6,0,.62.62,0,1,0-1-.78Z"/><path class="cls-1" d="M11.37,28.49a2.6,2.6,0,0,1-2,1,2.6,2.6,0,0,1-2-1,.62.62,0,1,0-1,.78,3.82,3.82,0,0,0,3,1.51,3.82,3.82,0,0,0,3-1.51.62.62,0,1,0-1-.78Z"/><path class="cls-1" d="M13.24,17.26a2.6,2.6,0,0,1-2,1,2.6,2.6,0,0,1-2-1,.62.62,0,1,0-1,.78,3.82,3.82,0,0,0,3,1.51,3.82,3.82,0,0,0,3-1.51.62.62,0,1,0-1-.78Z"/><path class="cls-1" d="M6.72,23a.62.62,0,1,0-1-.78,2.6,2.6,0,0,1-2,1,2.6,2.6,0,0,1-2-1,.62.62,0,1,0-1,.78,3.82,3.82,0,0,0,3,1.51A3.82,3.82,0,0,0,6.72,23Z"/><path class="cls-1" d="M29.46,29.15a2.45,2.45,0,0,1-4,0,.62.62,0,1,0-1,.78,3.69,3.69,0,0,0,6,0,.62.62,0,1,0-1-.78Z"/><path class="cls-1" d="M31.2,5.07a1.31,1.31,0,0,1,1-1.3A1.25,1.25,0,0,1,33.69,5a1.87,1.87,0,0,0,2.13,1.85,2,2,0,0,0,1.62-1.93,5,5,0,0,0-1.68-3.66A4.94,4.94,0,0,0,31.91,0a5.12,5.12,0,0,0-4.46,5.11V7.74H18.72V5.31a1.31,1.31,0,0,1,1-1.3,1.25,1.25,0,0,1,1.5,1.22A1.87,1.87,0,0,0,23.34,7.1,2,2,0,0,0,25,5.16,5,5,0,0,0,19.44.28,5.12,5.12,0,0,0,15,5.39v5.47H0V14.6H15v7.49h3.74V17.72h8.73v4.37H31.2V14h6.24V10.23H31.2ZM15,13.35H1.25V12.1H15Zm15,7.49H28.7V16.47H17.47v4.37H16.22V5.39a3.86,3.86,0,0,1,3.34-3.87,3.71,3.71,0,0,1,2.88.92,3.75,3.75,0,0,1,1.26,2.74.72.72,0,0,1-.53.68.62.62,0,0,1-.71-.62,2.5,2.5,0,0,0-3-2.45,2.54,2.54,0,0,0-2,2.52V9H28.7V5.14A3.86,3.86,0,0,1,32,1.27a3.75,3.75,0,0,1,4.14,3.66.72.72,0,0,1-.53.68A.62.62,0,0,1,34.94,5a2.5,2.5,0,0,0-3-2.45,2.54,2.54,0,0,0-2,2.52v5.16h0V14h0Zm6.24-9.36v1.25h-5V11.48Z"/><path class="cls-1" d="M17.47,15.22H28.7v-5H17.47Zm1.25-3.74h8.73V14H18.72Z"/></g></g></svg>