<?xml version="1.0" encoding="utf-8"?>
<!-- Generator: Adobe Illustrator 21.0.0, SVG Export Plug-In . SVG Version: 6.00 Build 0)  -->
<svg version="1.1" id="Layer_1" xmlns="http://www.w3.org/2000/svg" xmlns:xlink="http://www.w3.org/1999/xlink" x="0px" y="0px"
	 viewBox="0 0 29.9 31.5" style="enable-background:new 0 0 29.9 31.5;" xml:space="preserve">
<style type="text/css">
	.st0{opacity:0.25;}
	.st1{fill:#58595B;}
	.st2{fill:none;stroke:#58595B;stroke-miterlimit:10;}
</style>
<title>Asset 13100</title>
<g id="Layer_2" class="st0">
	<g id="Layer_2-2">
		<path class="st1" d="M29.9,23.6c-0.1-0.2-0.2-0.3-0.4-0.4l-4.1-0.6l-1.8-3.5c-0.2-0.3-0.5-0.3-0.8-0.2c-0.1,0-0.1,0.1-0.2,0.2
			l-1.8,3.5l-4.1,0.6c-0.3,0-0.5,0.3-0.5,0.6c0,0.1,0.1,0.2,0.2,0.3l2.9,2.8l-0.7,3.9c-0.1,0.3,0.1,0.6,0.4,0.6c0.1,0,0.2,0,0.3,0
			l3.6-1.9l3.6,1.9c0.1,0,0.2,0.1,0.2,0.1c0.3,0,0.5-0.2,0.5-0.5c0,0,0-0.1,0-0.1l-0.7-3.9l2.9-2.8C29.9,24,29.9,23.8,29.9,23.6z
			 M25.9,26.4c-0.1,0.1-0.2,0.3-0.2,0.5l0.6,3.2l-3-1.5c-0.1-0.1-0.3-0.1-0.5,0l-3,1.5l0.6-3.1c0-0.2,0-0.4-0.2-0.5l-2.4-2.2
			l3.3-0.5c0.2,0,0.3-0.1,0.4-0.3l1.5-2.9l1.5,2.9c0.1,0.2,0.2,0.3,0.4,0.3l3.3,0.5L25.9,26.4z"/>
		<path class="st1" d="M5.2,1h17.8v15.8h1V0H0v31.4h15.7v-1H5.2V1z M1,30.4V1h3.2v29.4H1z"/>
		<path class="st1" d="M20.4,12.6V5.2H7.9v7.3H20.4z M8.9,6.3h10.5v5.2H8.9V6.3z"/>
		<rect x="10.5" y="7.3" class="st1" width="7.3" height="1.1"/>
		<rect x="10.5" y="9.4" class="st1" width="7.3" height="1.1"/>
	</g>
</g>
<g>
	<line class="st2" x1="0" y1="32.1" x2="30.9" y2="-1"/>
</g>
<g>
	<line class="st2" x1="29.9" y1="31.1" x2="0" y2="0"/>
</g>
</svg>
