<svg xmlns="http://www.w3.org/2000/svg" viewBox="0 0 29.87 31.45"><defs><style>.cls-1{fill:#58595b;}</style></defs><title>Asset 13100</title><g id="Layer_2" data-name="Layer 2"><g id="Layer_2-2" data-name="Layer 2"><path class="cls-1" d="M29.85,23.64a.52.52,0,0,0-.43-.36l-4.08-.57-1.82-3.55a.55.55,0,0,0-.93,0l-1.82,3.55-4.08.57a.52.52,0,0,0-.29.9l2.94,2.76-.69,3.89a.52.52,0,0,0,.75.56l3.65-1.85,3.65,1.85a.52.52,0,0,0,.24.06.52.52,0,0,0,.52-.62l-.69-3.89,2.94-2.76A.52.52,0,0,0,29.85,23.64Zm-4,2.73a.52.52,0,0,0-.16.47L26.25,30,23.3,28.48a.52.52,0,0,0-.47,0L19.87,30l.56-3.14a.52.52,0,0,0-.16-.47l-2.35-2.2,3.26-.46a.52.52,0,0,0,.39-.28l1.48-2.88,1.48,2.88a.52.52,0,0,0,.39.28l3.26.46Z"/><path class="cls-1" d="M5.24,1H23.06V16.77h1V0H0V31.44H15.72v-1H5.24ZM1,30.4V1H4.19V30.4Z"/><path class="cls-1" d="M20.44,12.58V5.24H7.86v7.34ZM8.91,6.29H19.39v5.24H8.91Z"/><rect class="cls-1" x="10.48" y="7.34" width="7.34" height="1.05"/><rect class="cls-1" x="10.48" y="9.43" width="7.34" height="1.05"/></g></g></svg>