<svg xmlns="http://www.w3.org/2000/svg" viewBox="0 0 36.06 31.44"><defs><style>.cls-1{fill:#58595b;}</style></defs><title>Asset 9100</title><g id="Layer_2" data-name="Layer 2"><g id="Layer_2-2" data-name="Layer 2"><path class="cls-1" d="M33.32,26.22H2.73A2.73,2.73,0,0,1,0,23.49V2.73A2.73,2.73,0,0,1,2.73,0H33.32a2.73,2.73,0,0,1,2.73,2.73V23.49A2.73,2.73,0,0,1,33.32,26.22ZM2.73,1.09A1.64,1.64,0,0,0,1.09,2.73V23.49a1.64,1.64,0,0,0,1.64,1.64H33.32A1.64,1.64,0,0,0,35,23.49V2.73a1.64,1.64,0,0,0-1.64-1.64Z"/><path class="cls-1" d="M25,31.44H11.06a.55.55,0,0,1,0-1.09H25a.55.55,0,0,1,0,1.09Z"/><path class="cls-1" d="M18,31.44a.55.55,0,0,1-.55-.55V25.67a.55.55,0,1,1,1.09,0V30.9A.55.55,0,0,1,18,31.44Z"/></g></g></svg>