<?xml version="1.0" encoding="utf-8"?>
<!-- Generator: Adobe Illustrator 21.0.0, SVG Export Plug-In . SVG Version: 6.00 Build 0)  -->
<svg version="1.1" id="Layer_1" xmlns="http://www.w3.org/2000/svg" xmlns:xlink="http://www.w3.org/1999/xlink" x="0px" y="0px"
	 viewBox="0 0 45 32.1" style="enable-background:new 0 0 45 32.1;" xml:space="preserve">
<style type="text/css">
	.st0{opacity:0.2;}
	.st1{fill:#58595B;}
	.st2{fill:none;stroke:#58595B;stroke-miterlimit:10;}
</style>
<title>Asset 5100</title>
<g id="Layer_2" class="st0">
	<g id="Layer_2-2">
		<path class="st1" d="M44.8,9.2C32.5-3.1,12.5-3.1,0.2,9.2c-0.3,0.3-0.3,0.8,0,1.2c0.3,0.3,0.8,0.3,1.2,0l0,0
			c11.7-11.6,30.5-11.6,42.2,0c0.3,0.3,0.8,0.3,1.2,0C45.1,10,45.1,9.5,44.8,9.2L44.8,9.2z"/>
		<path class="st1" d="M5.1,14c-0.4,0.3-0.4,0.8-0.2,1.1c0.3,0.4,0.8,0.4,1.1,0.2c0.1,0,0.1-0.1,0.2-0.2c9-9,23.6-9,32.6,0
			c0.3,0.3,0.8,0.3,1.2,0c0.3-0.3,0.3-0.8,0-1.2C30.3,4.5,14.7,4.5,5.1,14z"/>
		<path class="st1" d="M22.5,13.6c-4.7,0-9.3,1.9-12.6,5.2c-0.3,0.3-0.3,0.8,0,1.2c0.3,0.3,0.8,0.3,1.2,0l0,0
			c6.3-6.3,16.6-6.3,22.9,0c0.3,0.3,0.8,0.3,1.2,0s0.3-0.8,0-1.2C31.8,15.5,27.2,13.6,22.5,13.6z"/>
		<path class="st1" d="M22.5,21.4c-3,0-5.4,2.4-5.4,5.4s2.4,5.4,5.4,5.4s5.4-2.4,5.4-5.4S25.5,21.4,22.5,21.4L22.5,21.4z M22.5,30.4
			c-2.1,0-3.7-1.7-3.7-3.7s1.7-3.7,3.7-3.7s3.7,1.7,3.7,3.7l0,0C26.2,28.8,24.6,30.5,22.5,30.4C22.5,30.5,22.5,30.5,22.5,30.4
			L22.5,30.4z"/>
	</g>
</g>
<g>
	<line class="st2" x1="0" y1="32.1" x2="44.7" y2="0"/>
</g>
<g>
	<line class="st2" x1="44.7" y1="32.1" x2="0" y2="0"/>
</g>
</svg>
