<?xml version="1.0" encoding="utf-8"?>
<!-- Generator: Adobe Illustrator 21.0.0, SVG Export Plug-In . SVG Version: 6.00 Build 0)  -->
<svg version="1.1" xmlns="http://www.w3.org/2000/svg" xmlns:xlink="http://www.w3.org/1999/xlink" x="0px" y="0px"
	 viewBox="0 0 921.8 502.6" style="enable-background:new 0 0 921.8 502.6;" xml:space="preserve">
<style type="text/css">
	.st0{fill:#0EC8DB;}
	.st1{fill:#02CE68;}
</style>
<g id="_x2014_ÎÓÈ_x5F_2">
</g>
<g id="_x2014_ÎÓÈ_x5F_1">
	<g>
		<g>
			<g>
				<path class="st0" d="M885.6,503.1H865c-2.8,0-5-2.2-5-5c0-2.8,2.2-5,5-5h20.7c2.8,0,5,2.2,5,5
					C890.6,500.9,888.4,503.1,885.6,503.1z"/>
			</g>
			<g>
				<path class="st0" d="M837.6,503.1H795c-2.8,0-5-2.2-5-5c0-2.8,2.2-5,5-5h42.7c2.8,0,5,2.2,5,5
					C842.6,500.9,840.4,503.1,837.6,503.1z"/>
			</g>
			<g>
				<path class="st0" d="M761.6,503.1H223c-2.8,0-5-2.2-5-5c0-2.8,2.2-5,5-5h538.7c2.8,0,5,2.2,5,5
					C766.6,500.9,764.4,503.1,761.6,503.1z"/>
			</g>
			<g>
				<path class="st0" d="M185.6,503.1h-27.3c-2.8,0-5-2.2-5-5c0-2.8,2.2-5,5-5h27.3c2.8,0,5,2.2,5,5
					C190.6,500.9,188.4,503.1,185.6,503.1z"/>
			</g>
			<g>
				<path class="st0" d="M130.3,503.1h-22.7c-2.8,0-5-2.2-5-5c0-2.8,2.2-5,5-5h22.7c2.8,0,5,2.2,5,5
					C135.3,500.9,133.1,503.1,130.3,503.1z"/>
			</g>
		</g>
	</g>
	<g>
		<path class="st0" d="M545.8,195.4c-4.3,0-7.8,3.5-7.8,7.8c0,4.3,3.5,7.8,7.8,7.8c4.3,0,7.8-3.5,7.8-7.8
			C553.6,198.9,550.1,195.4,545.8,195.4z M545.8,208.2c-2.8,0-5-2.3-5-5s2.3-5,5-5c2.8,0,5,2.3,5,5S548.6,208.2,545.8,208.2z"/>
		<g>
			<path class="st0" d="M289.6,222.6c-0.4-0.4-1.1-0.4-1.6,0c-0.4,0.4-0.4,1.1,0,1.6l1.8,1.8c0.2,0.2,0.5,0.3,0.8,0.3
				c0.3,0,0.6-0.1,0.8-0.3c0.4-0.4,0.4-1.1,0-1.6L289.6,222.6z"/>
			<path class="st0" d="M290.5,228.1c0-0.6-0.5-1.1-1.1-1.1h-2.5c-0.6,0-1.1,0.5-1.1,1.1c0,0.6,0.5,1.1,1.1,1.1h2.5
				C290,229.2,290.5,228.7,290.5,228.1z"/>
			<path class="st0" d="M289.8,230.2L288,232c-0.4,0.4-0.4,1.1,0,1.6c0.2,0.2,0.5,0.3,0.8,0.3c0.3,0,0.6-0.1,0.8-0.3l1.8-1.8
				c0.4-0.4,0.4-1.1,0-1.6C291,229.7,290.3,229.7,289.8,230.2z"/>
			<path class="st0" d="M293.5,231c-0.6,0-1.1,0.5-1.1,1.1v2.5c0,0.6,0.5,1.1,1.1,1.1c0.6,0,1.1-0.5,1.1-1.1v-2.5
				C294.6,231.5,294.1,231,293.5,231z"/>
			<path class="st0" d="M297.1,230.2c-0.4-0.4-1.1-0.4-1.6,0c-0.4,0.4-0.4,1.1,0,1.6l1.8,1.8c0.2,0.2,0.5,0.3,0.8,0.3
				c0.3,0,0.6-0.1,0.8-0.3c0.4-0.4,0.4-1.1,0-1.6L297.1,230.2z"/>
			<path class="st0" d="M300.1,227h-2.5c-0.6,0-1.1,0.5-1.1,1.1c0,0.6,0.5,1.1,1.1,1.1h2.5c0.6,0,1.1-0.5,1.1-1.1
				C301.2,227.5,300.7,227,300.1,227z"/>
			<path class="st0" d="M296.4,226.3c0.3,0,0.6-0.1,0.8-0.3l1.8-1.8c0.4-0.4,0.4-1.1,0-1.6c-0.4-0.4-1.1-0.4-1.6,0l-1.8,1.8
				c-0.4,0.4-0.4,1.1,0,1.6C295.8,226.2,296.1,226.3,296.4,226.3z"/>
			<path class="st0" d="M293.5,220.4c-0.6,0-1.1,0.5-1.1,1.1v2.5c0,0.6,0.5,1.1,1.1,1.1c0.6,0,1.1-0.5,1.1-1.1v-2.5
				C294.6,220.9,294.1,220.4,293.5,220.4z"/>
		</g>
		<path class="st0" d="M196.8,175.2c-0.5,0.3-0.6,0.9-0.4,1.3c1,1.7,0.4,3.9-1.3,4.8c-1.7,1-3.9,0.4-4.8-1.3c-1-1.7-0.4-3.9,1.3-4.8
			c0.6-0.3,1.2-0.5,1.8-0.5c0.5,0,1-0.4,1-1c0-0.5-0.4-1-1-1c-1,0-2,0.2-2.8,0.7c-2.6,1.5-3.5,4.9-2,7.5c1.5,2.6,4.9,3.5,7.5,2
			c2.6-1.5,3.5-4.9,2-7.5C197.9,175.1,197.3,175,196.8,175.2z"/>
		<path class="st0" d="M174.7,362.5c-0.4,0.2-0.5,0.7-0.3,1.1c0.8,1.3,0.3,3-1,3.8c-1.3,0.8-3,0.3-3.8-1c-0.8-1.3-0.3-3,1-3.8
			c0.4-0.3,0.9-0.4,1.4-0.4c0.4,0,0.8-0.3,0.8-0.8c0-0.4-0.3-0.8-0.8-0.8c-0.8,0-1.5,0.2-2.2,0.6c-2.1,1.2-2.8,3.8-1.6,5.9
			c1.2,2.1,3.8,2.8,5.9,1.6c2.1-1.2,2.8-3.8,1.6-5.9C175.5,362.4,175,362.3,174.7,362.5z"/>
		<path class="st0" d="M459.9,169.3c0-0.9-0.7-1.6-1.6-1.6h-5.8v-5.8c0-0.9-0.7-1.6-1.6-1.6s-1.6,0.7-1.6,1.6v5.8h-5.8
			c-0.9,0-1.6,0.7-1.6,1.6c0,0.9,0.7,1.6,1.6,1.6h5.8v5.8c0,0.9,0.7,1.6,1.6,1.6s1.6-0.7,1.6-1.6v-5.8h5.8
			C459.1,170.9,459.9,170.2,459.9,169.3z"/>
		<path class="st0" d="M211.1,238.5h-6.8v-6.8c0-1.1-0.9-1.9-1.9-1.9c-1.1,0-1.9,0.9-1.9,1.9v6.8h-6.8c-1.1,0-1.9,0.9-1.9,1.9
			c0,1.1,0.9,1.9,1.9,1.9h6.8v6.8c0,1.1,0.9,1.9,1.9,1.9c1.1,0,1.9-0.9,1.9-1.9v-6.8h6.8c1.1,0,1.9-0.9,1.9-1.9
			C213,239.4,212.2,238.5,211.1,238.5z"/>
		<path class="st0" d="M610.3,258.7c-0.8-0.8-2-0.8-2.8,0l-4.9,4.9l-4.9-4.9c-0.8-0.8-2-0.8-2.8,0c-0.8,0.8-0.8,2,0,2.8l4.9,4.9
			l-4.9,4.9c-0.8,0.8-0.8,2,0,2.8c0.8,0.8,2,0.8,2.8,0l4.9-4.9l4.9,4.9c0.8,0.8,2,0.8,2.8,0c0.8-0.8,0.8-2,0-2.8l-4.9-4.9l4.9-4.9
			C611.1,260.7,611.1,259.5,610.3,258.7z"/>
		<circle class="st0" cx="245.1" cy="327.9" r="3.5"/>
	</g>
	<g>
		<g>
			<path class="st0" d="M896.4,155.2c-1.1,0-2.1,0.4-2.8,1.2c-0.8,0.7-1.2,1.8-1.2,2.8c0,1,0.4,2.1,1.2,2.8c0.7,0.8,1.8,1.2,2.8,1.2
				c1,0,2.1-0.4,2.8-1.2c0.8-0.7,1.2-1.8,1.2-2.8c0-1.1-0.4-2.1-1.2-2.8C898.5,155.7,897.5,155.2,896.4,155.2z"/>
			<path class="st0" d="M915.1,125.7c-4.2-4.1-9.7-6.3-15.4-6.2c-6.4,0.1-12.1,3.1-16,7.6c-5.5-13.3-18.6-22.7-33.9-22.7
				c-14.9,0-27.8,9-33.5,21.8c-0.8-1.1-1.7-2.2-2.7-3.1c-4.9-4.8-11.3-7.4-18.1-7.2c-13.7,0.2-24.8,11.7-24.8,25.6v11.3
				c0,1.4-1.1,2.5-2.5,2.5h-7c-2.2,0-4,1.8-4,4c0,2.2,1.8,4,4,4h7c5.8,0,10.5-4.7,10.5-10.5v-11.3c0-9.6,7.6-17.5,17-17.6
				c4.7-0.1,9.1,1.7,12.4,5c3.3,3.3,5.2,7.6,5.2,12.3c0,2.2,1.8,4,4,4c2.2,0,4-1.8,4-4c0-15.8,12.9-28.7,28.7-28.7
				c15.8,0,28.7,12.9,28.7,28.7c0,2.2,1.8,4,4,4c2.2,0,4-1.8,4-4c0-7.4,6-13.5,13.4-13.6c3.6-0.1,7,1.3,9.6,3.9
				c2.7,2.6,4.2,6.3,4.2,10.1v7.8c0,3.3-2.7,6-6,6c-2.2,0-4,1.8-4,4c0,2.2,1.8,4,4,4c7.7,0,14-6.3,14-14v-7.8
				C921.8,135.6,919.4,129.8,915.1,125.7z"/>
			<path class="st0" d="M749.4,155.2h-4.1c-2.2,0-4,1.8-4,4c0,2.2,1.8,4,4,4h4.1c2.2,0,4-1.8,4-4C753.4,157,751.6,155.2,749.4,155.2
				z"/>
			<path class="st0" d="M734.1,155.2c-1.1,0-2.1,0.4-2.8,1.2c-0.7,0.7-1.2,1.8-1.2,2.8c0,1,0.4,2.1,1.2,2.8c0.8,0.8,1.8,1.2,2.8,1.2
				c1,0,2.1-0.4,2.8-1.2c0.7-0.7,1.2-1.8,1.2-2.8c0-1.1-0.4-2.1-1.2-2.8C736.2,155.7,735.2,155.2,734.1,155.2z"/>
		</g>
		<g>
			<path class="st0" d="M548.8,43.6h-2c-2.2,0-4,1.8-4,4c0,2.2,1.8,4,4,4h2c2.2,0,4-1.8,4-4C552.8,45.4,551,43.6,548.8,43.6z"/>
			<path class="st0" d="M560.6,12.9c-5.3,0.1-10.1,2.4-13.5,6.1c-5-11.2-16.2-19-29.2-19c-12.7,0-23.7,7.4-28.9,18.2
				c-0.6-0.7-1.1-1.4-1.8-2c-4.3-4.2-9.9-6.5-16-6.4c-12,0.2-21.9,10.3-21.9,22.5V42c0,0.9-0.7,1.6-1.6,1.6h-6c-2.2,0-4,1.8-4,4
				c0,2.2,1.8,4,4,4h6c5.3,0,9.6-4.3,9.6-9.6v-9.7c0-7.9,6.3-14.4,14-14.5c3.8-0.1,7.5,1.4,10.2,4.1c2.7,2.7,4.3,6.3,4.3,10.1
				c0,2.2,1.8,4,4,4c2.2,0,4-1.8,4-4c0-13.2,10.8-24,24-24c13.2,0,24,10.8,24,24c0,2.2,1.8,4,4,4c2.2,0,4-1.8,4-4
				c0-6,4.9-11,10.9-11.1c3-0.1,5.7,1.1,7.9,3.2c2.2,2.2,3.5,5.2,3.5,8.2V39c0,2.5-2.1,4.6-4.6,4.6c-2.2,0-4,1.8-4,4
				c0,2.2,1.8,4,4,4c6.9,0,12.6-5.6,12.6-12.6v-6.6c0-5.2-2.1-10.3-5.9-13.9C570.5,14.8,565.7,12.8,560.6,12.9z"/>
			<path class="st0" d="M424.6,43.6h-7.8c-2.2,0-4,1.8-4,4c0,2.2,1.8,4,4,4h7.8c2.2,0,4-1.8,4-4C428.6,45.4,426.8,43.6,424.6,43.6z"
				/>
			<path class="st0" d="M396.7,43.6c-1,0-2.1,0.4-2.8,1.2c-0.7,0.8-1.2,1.8-1.2,2.8c0,1,0.4,2.1,1.2,2.8c0.7,0.7,1.8,1.2,2.8,1.2
				c1,0,2.1-0.4,2.8-1.2c0.8-0.8,1.2-1.8,1.2-2.8c0-1.1-0.4-2.1-1.2-2.8C398.8,44,397.7,43.6,396.7,43.6z"/>
		</g>
		<g>
			<path class="st0" d="M234.9,73.6c-3.7-0.1-7.1,1.1-9.9,3.3c-5.1-14.7-19.1-25.3-35.5-25.3c-15.1,0-28.1,8.9-34,21.8
				c-5.3-8.4-14.6-14-25.2-14c-11.7,0-21.8,6.8-26.7,16.6c-3.6-4.2-8.9-6.9-14.9-7.1c-5.4-0.1-10.5,1.9-14.4,5.8
				c-3.9,3.9-6.2,9.2-6.2,14.7c0,8.2-6.7,14.9-14.9,14.9h-4.5c-2.2,0-4,1.8-4,4s1.8,4,4,4h4.5C65.8,112.3,76,102,76,89.4
				c0-3.4,1.4-6.7,3.8-9c2.4-2.3,5.4-3.5,8.6-3.5c6.6,0.1,12,5.6,12,12.2c0,2.2,1.8,4,4,4c2.2,0,4-1.8,4-4c0-12,9.8-21.8,21.8-21.8
				c12,0,21.8,9.8,21.8,21.8c0,2.2,1.8,4,4,4s4-1.8,4-4c0-16.3,13.2-29.5,29.5-29.5c16.3,0,29.5,13.2,29.5,29.5c0,2.2,1.8,4,4,4
				c2.2,0,4-1.8,4-4c0-2,0.8-3.9,2.3-5.4c1.5-1.4,3.4-2.2,5.4-2.1c4,0.1,7.3,3.6,7.3,7.7v7.5c0,4.1-3.3,7.5-7.5,7.5h-2.1
				c-2.2,0-4,1.8-4,4s1.8,4,4,4h2.1c8.5,0,15.5-6.9,15.5-15.5v-7.5C250,80.9,243.2,73.8,234.9,73.6z"/>
			<path class="st0" d="M7.7,104.3H4c-2.2,0-4,1.8-4,4s1.8,4,4,4h3.7c2.2,0,4-1.8,4-4S9.9,104.3,7.7,104.3z"/>
			<path class="st0" d="M35,104.3H21.2c-2.2,0-4,1.8-4,4s1.8,4,4,4H35c2.2,0,4-1.8,4-4S37.2,104.3,35,104.3z"/>
			<path class="st0" d="M221.3,104.3h-10.5c-2.2,0-4,1.8-4,4s1.8,4,4,4h10.5c2.2,0,4-1.8,4-4S223.5,104.3,221.3,104.3z"/>
		</g>
	</g>
	<g>
		<g>
			<g>
				<path class="st0" d="M229.6,399.3h-6.1c-2.7,0-4.9-2.2-4.9-4.9c0-2.7,2.2-4.9,4.9-4.9h6.1c2.7,0,4.9,2.2,4.9,4.9
					C234.6,397.1,232.4,399.3,229.6,399.3z"/>
			</g>
			<g>
				<path class="st0" d="M283.9,399.3h-37.5c-2.7,0-4.9-2.2-4.9-4.9c0-2.7,2.2-4.9,4.9-4.9h37.5c2.7,0,4.9,2.2,4.9,4.9
					C288.8,397.1,286.6,399.3,283.9,399.3z"/>
			</g>
		</g>
		<g>
			<g>
				<path class="st0" d="M336.2,295.7h-13.8c-2.7,0-4.9-2.2-4.9-4.9c0-2.7,2.2-4.9,4.9-4.9h13.8c2.7,0,4.9,2.2,4.9,4.9
					C341.1,293.5,338.9,295.7,336.2,295.7z"/>
			</g>
			<g>
				<path class="st0" d="M307.4,295.7c-1.3,0-2.6-0.5-3.5-1.4c-0.9-0.9-1.4-2.2-1.4-3.5c0-1.3,0.5-2.6,1.4-3.5
					c0.9-0.9,2.2-1.4,3.5-1.4c1.3,0,2.6,0.5,3.5,1.4c0.9,0.9,1.4,2.2,1.4,3.5c0,1.3-0.5,2.6-1.4,3.5
					C310,295.2,308.7,295.7,307.4,295.7z"/>
			</g>
		</g>
		<g>
			<g>
				<path class="st0" d="M270,182.9h-10.3c-2.7,0-4.9-2.2-4.9-4.9c0-2.7,2.2-4.9,4.9-4.9H270c2.7,0,4.9,2.2,4.9,4.9
					C275,180.7,272.7,182.9,270,182.9z"/>
			</g>
			<g>
				<path class="st0" d="M339.5,182.9h-51.2c-2.7,0-4.9-2.2-4.9-4.9c0-2.7,2.2-4.9,4.9-4.9h51.2c2.7,0,4.9,2.2,4.9,4.9
					C344.4,180.7,342.2,182.9,339.5,182.9z"/>
			</g>
		</g>
	</g>
	<g>
		<g>
			<g>
				<path class="st0" d="M410.3,502.6c-18.2,0-33.1-14.8-33.1-33.1c0-18.2,14.8-33.1,33.1-33.1c18.2,0,33.1,14.8,33.1,33.1
					C443.4,487.8,428.5,502.6,410.3,502.6z M410.3,446.3c-12.8,0-23.2,10.4-23.2,23.2c0,12.8,10.4,23.2,23.2,23.2
					c12.8,0,23.2-10.4,23.2-23.2C433.5,456.7,423.1,446.3,410.3,446.3z"/>
			</g>
			<g>
				<path class="st0" d="M663.3,436.5c-18.2,0-33.1,14.8-33.1,33.1c0,18.2,14.8,33.1,33.1,33.1s33.1-14.8,33.1-33.1
					C696.4,451.3,681.5,436.5,663.3,436.5z M663.3,497.7c-15.6,0-28.2-12.6-28.2-28.2c0-15.6,12.6-28.2,28.2-28.2
					c15.6,0,28.2,12.6,28.2,28.2C691.4,485.1,678.8,497.7,663.3,497.7z"/>
				<path class="st0" d="M663.3,441.4c-15.6,0-28.2,12.6-28.2,28.2c0,15.6,12.6,28.2,28.2,28.2c15.6,0,28.2-12.6,28.2-28.2
					C691.4,454,678.8,441.4,663.3,441.4z M663.3,492.8c-12.8,0-23.2-10.4-23.2-23.2c0-12.8,10.4-23.2,23.2-23.2s23.2,10.4,23.2,23.2
					C686.5,482.4,676.1,492.8,663.3,492.8z"/>
			</g>
			<g>
				<g>
					<path class="st1" d="M615.9,378.2l-22.9-30c-4.4-5.8-11.3-9.2-18.6-9.2h-38.3v39.2H615.9z"/>
				</g>
				<g>
					<path class="st0" d="M626.5,383.1h-79.8c-2.7,0-4.9-2.2-4.9-4.9V339c0-2.7,2.2-4.9,4.9-4.9h38.3c8.8,0,17.2,4.2,22.5,11.1
						l22.9,30c1.1,1.5,1.3,3.5,0.5,5.2C630.1,382.1,628.3,383.1,626.5,383.1z M551.6,373.3h64.9l-16.9-22.1c-3.5-4.5-9-7.3-14.7-7.3
						h-33.4V373.3z"/>
				</g>
			</g>
			<g>
				<path class="st0" d="M715.8,474.5h-10.2c-2.7,0-4.9-2.2-4.9-4.9c0-20.6-16.8-37.4-37.4-37.4s-37.4,16.8-37.4,37.4
					c0,2.7-2.2,4.9-4.9,4.9H452.6c-2.7,0-4.9-2.2-4.9-4.9c0-20.6-16.8-37.4-37.4-37.4c-20.6,0-37.4,16.8-37.4,37.4
					c0,2.7-2.2,4.9-4.9,4.9h-29.5c-14.6,0-26.4-11.9-26.4-26.4v-38.7c0-2.7,2.2-4.9,4.9-4.9h195.5c5.3,0,9.6-4.3,9.6-9.6v-61.7
					c0-10.4,8.4-18.8,18.8-18.8h40.4c17.2,0,33.8,8.2,44.2,21.9l23.9,31.3c2.5,3.3,6.2,5.7,10.2,6.8l50.6,13.4
					c14.7,3.9,24.9,23.7,24.9,39v28.5C735.1,465.8,726.4,474.5,715.8,474.5z M710.3,464.6h5.5c5.2,0,9.4-4.2,9.4-9.4v-28.5
					c0-11.2-7.8-26.9-17.6-29.5L657,383.9c-6.1-1.6-11.7-5.3-15.5-10.4l-23.9-31.3c-8.6-11.3-22.2-18-36.4-18h-40.4
					c-4.9,0-8.9,4-8.9,8.9v61.7c0,10.7-8.7,19.5-19.5,19.5H321.8V448c0,9.1,7.4,16.6,16.6,16.6h24.9c2.5-23.8,22.6-42.4,47-42.4
					c24.4,0,44.6,18.6,47,42.4h158.9c2.5-23.8,22.6-42.4,47-42.4S707.8,440.9,710.3,464.6z"/>
			</g>
			<g>
				<path class="st0" d="M562.8,412.9h-11c-1.9,0-3.5-1.6-3.5-3.5s1.6-3.5,3.5-3.5h11c1.9,0,3.5,1.6,3.5,3.5
					S564.8,412.9,562.8,412.9z"/>
			</g>
			<g>
				<circle class="st0" cx="663.3" cy="469.5" r="7"/>
			</g>
			<g>
				<circle class="st0" cx="410.3" cy="469.5" r="7"/>
			</g>
			<g>
				<path class="st0" d="M325.5,428.5h-17.4c-2.7,0-4.9-2.2-4.9-4.9s2.2-4.9,4.9-4.9h17.4c2.7,0,4.9,2.2,4.9,4.9
					S328.2,428.5,325.5,428.5z"/>
			</g>
			<g>
				<path class="st0" d="M738.9,428.5h-17.4c-2.7,0-4.9-2.2-4.9-4.9s2.2-4.9,4.9-4.9h17.4c2.7,0,4.9,2.2,4.9,4.9
					S741.6,428.5,738.9,428.5z"/>
			</g>
		</g>
		<g>
			<g>
				<path class="st0" d="M481.5,412c-2.3,0-4.7-0.3-7-0.9l-130.2-34.3c-14.7-3.9-23.4-18.9-19.6-33.6l36.2-137.5
					c3.9-14.7,18.9-23.4,33.6-19.6l130.2,34.3c14.7,3.9,23.4,18.9,19.6,33.6l-36.2,137.5C504.8,403.9,493.7,412,481.5,412z
					 M387.4,197.2c-2.7,0-5.4,0.7-7.8,2.1c-3.6,2.1-6.1,5.4-7.2,9.4l-36.2,137.5c-2.2,8.3,2.8,16.8,11,18.9l130.2,34.3l0,0
					c8.3,2.2,16.8-2.8,18.9-11l36.2-137.5c1.1-4,0.5-8.2-1.6-11.7c-2.1-3.6-5.4-6.1-9.4-7.2l-130.2-34.3
					C390.1,197.4,388.7,197.2,387.4,197.2z"/>
			</g>
			<g>
				<g>
					<path class="st0" d="M429.6,248.7c-0.2-0.1-0.4-0.2-0.5-0.4c-0.1-0.2-0.1-0.4-0.1-0.6l0.9-3.6l-9.1-2.4
						c-0.2-0.1-0.4-0.2-0.5-0.4c-0.1-0.2-0.1-0.4-0.1-0.6l0.6-2.1c0.1-0.3,0.2-0.5,0.4-0.7c0.2-0.2,0.4-0.4,0.6-0.5l12-8.9
						c0.5-0.4,1-0.5,1.4-0.4l2.2,0.6c0.2,0.1,0.4,0.2,0.5,0.4c0.1,0.2,0.1,0.4,0.1,0.6l-3.1,11.8l2.5,0.7c0.2,0.1,0.4,0.2,0.5,0.4
						c0.1,0.2,0.1,0.4,0.1,0.6l-0.6,2.1c-0.1,0.2-0.2,0.4-0.4,0.5c-0.2,0.1-0.4,0.1-0.6,0.1l-2.5-0.7l-0.9,3.6
						c-0.1,0.2-0.2,0.4-0.4,0.5c-0.2,0.1-0.4,0.1-0.6,0.1L429.6,248.7z M430.9,240.4l1.7-6.3l-6.7,5L430.9,240.4z"/>
				</g>
				<g>
					<path class="st0" d="M458,242.3c-0.1,0.4-0.2,0.8-0.3,1.2c-0.1,0.5-0.2,0.9-0.4,1.4c-0.1,0.5-0.2,0.9-0.4,1.4
						c-0.1,0.5-0.2,0.9-0.4,1.2c-0.4,1.1-0.8,2.1-1.3,3c-0.5,0.9-1.2,1.6-2,2.2c-0.8,0.6-1.8,0.9-2.9,1c-1.1,0.1-2.4,0-3.8-0.4
						c-1.5-0.4-2.6-0.9-3.5-1.6c-0.9-0.7-1.5-1.4-2-2.3c-0.4-0.9-0.7-1.8-0.7-2.9c0-1,0.1-2.1,0.3-3.3c0.2-0.8,0.4-1.6,0.6-2.6
						c0.3-1,0.5-1.8,0.7-2.5c0.4-1.1,0.8-2.1,1.4-3.1c0.5-0.9,1.2-1.7,2-2.2c0.8-0.6,1.8-0.9,2.9-1.1c1.1-0.2,2.4-0.1,3.8,0.3
						c1.4,0.4,2.6,0.9,3.5,1.6c0.9,0.7,1.5,1.4,2,2.3c0.4,0.9,0.7,1.8,0.7,2.9C458.4,240.1,458.3,241.2,458,242.3z M444.8,244.3
						c-0.3,1.4-0.2,2.6,0.2,3.6c0.4,0.9,1.3,1.6,2.6,1.9c1.4,0.4,2.5,0.2,3.2-0.4c0.8-0.6,1.4-1.6,1.9-3c0.2-0.7,0.5-1.6,0.7-2.5
						c0.2-0.9,0.4-1.7,0.6-2.5c0.3-1.4,0.2-2.6-0.2-3.6c-0.4-0.9-1.3-1.6-2.6-1.9c-1.4-0.4-2.5-0.2-3.2,0.4c-0.8,0.6-1.4,1.6-1.9,3
						c-0.2,0.7-0.5,1.6-0.7,2.5C445.1,242.7,444.9,243.6,444.8,244.3z"/>
				</g>
				<g>
					<path class="st0" d="M467.9,258.8c-0.2-0.1-0.4-0.2-0.5-0.4c-0.1-0.2-0.1-0.4-0.1-0.6l0.9-3.6l-9.1-2.4
						c-0.2-0.1-0.4-0.2-0.5-0.4c-0.1-0.2-0.1-0.4-0.1-0.6l0.6-2.1c0.1-0.3,0.2-0.5,0.4-0.7c0.2-0.2,0.4-0.4,0.6-0.5l12-8.9
						c0.5-0.4,1-0.5,1.4-0.4l2.2,0.6c0.2,0.1,0.4,0.2,0.5,0.4c0.1,0.2,0.1,0.4,0.1,0.6l-3.1,11.8l2.5,0.7c0.2,0.1,0.4,0.2,0.5,0.4
						c0.1,0.2,0.1,0.4,0.1,0.6l-0.6,2.1c-0.1,0.2-0.2,0.4-0.4,0.5c-0.2,0.1-0.4,0.1-0.6,0.1l-2.5-0.7l-0.9,3.6
						c-0.1,0.2-0.2,0.4-0.4,0.5c-0.2,0.1-0.4,0.1-0.6,0.1L467.9,258.8z M469.2,250.5l1.7-6.3l-6.7,5L469.2,250.5z"/>
				</g>
			</g>
			<g>
				<path class="st0" d="M503.2,285.9l-16.9-4.4c-1.5-0.4-2.3-1.9-2-3.4c0.4-1.5,1.9-2.3,3.4-2l16.9,4.4c1.5,0.4,2.3,1.9,2,3.4
					C506.2,285.4,504.7,286.3,503.2,285.9z"/>
			</g>
			<g>
				<path class="st0" d="M459.1,274.3l-39.7-10.5c-1.5-0.4-2.3-1.9-2-3.4c0.4-1.5,1.9-2.3,3.4-2l39.7,10.5c1.5,0.4,2.3,1.9,2,3.4
					C462.1,273.8,460.6,274.7,459.1,274.3z"/>
			</g>
			<g>
				<path class="st0" d="M405.5,260.2l-19.5-5.1c-1.5-0.4-2.3-1.9-2-3.4c0.4-1.5,1.9-2.3,3.4-2l19.5,5.1c1.5,0.4,2.3,1.9,2,3.4
					C408.5,259.7,407,260.6,405.5,260.2z"/>
			</g>
			<g>
				<path class="st0" d="M499.7,299.1l-16.9-4.4c-1.5-0.4-2.3-1.9-2-3.4c0.4-1.5,1.9-2.3,3.4-2l16.9,4.4c1.5,0.4,2.3,1.9,2,3.4
					C502.7,298.6,501.2,299.5,499.7,299.1z"/>
			</g>
			<g>
				<path class="st0" d="M454.2,287.1l-27.6-7.3c-1.5-0.4-2.3-1.9-2-3.4c0.4-1.5,1.9-2.3,3.4-2l27.6,7.3c1.5,0.4,2.3,1.9,2,3.4
					C457.2,286.6,455.7,287.5,454.2,287.1z"/>
			</g>
			<g>
				<path class="st0" d="M402.1,273.4l-19.5-5.1c-1.5-0.4-2.3-1.9-2-3.4c0.4-1.5,1.9-2.3,3.4-2l19.5,5.1c1.5,0.4,2.3,1.9,2,3.4
					C405.1,272.9,403.5,273.8,402.1,273.4z"/>
			</g>
			<g>
				<path class="st0" d="M496.3,312.2l-23.4-6.2c-1.5-0.4-2.3-1.9-2-3.4c0.4-1.5,1.9-2.3,3.4-2l23.4,6.2c1.5,0.4,2.3,1.9,2,3.4
					C499.2,311.7,497.7,312.6,496.3,312.2z"/>
			</g>
			<g>
				<path class="st0" d="M437.7,296.8l-22.7-6c-1.5-0.4-2.3-1.9-2-3.4c0.4-1.5,1.9-2.3,3.4-2l22.7,6c1.5,0.4,2.3,1.9,2,3.4
					C440.6,296.3,439.1,297.2,437.7,296.8z"/>
			</g>
			<g>
				<path class="st0" d="M388.8,284l-9.8-2.6c-1.5-0.4-2.3-1.9-2-3.4c0.4-1.5,1.9-2.3,3.4-2l9.8,2.6c1.5,0.4,2.3,1.9,2,3.4
					C391.8,283.5,390.3,284.4,388.8,284z"/>
			</g>
			<g>
				<path class="st0" d="M492.8,325.4l-11.7-3.1c-1.5-0.4-2.3-1.9-2-3.4c0.4-1.5,1.9-2.3,3.4-2l11.7,3.1c1.5,0.4,2.3,1.9,2,3.4
					C495.8,324.9,494.3,325.8,492.8,325.4z"/>
			</g>
			<g>
				<path class="st0" d="M454.3,315.3l-14.5-3.8c-1.5-0.4-2.3-1.9-2-3.4c0.4-1.5,1.9-2.3,3.4-2l14.5,3.8c1.5,0.4,2.3,1.9,2,3.4
					C457.3,314.8,455.8,315.7,454.3,315.3z"/>
			</g>
			<g>
				<path class="st0" d="M419.7,306.2l-44.1-11.6c-1.5-0.4-2.3-1.9-2-3.4c0.4-1.5,1.9-2.3,3.4-2l44.1,11.6c1.5,0.4,2.3,1.9,2,3.4
					C422.7,305.7,421.2,306.5,419.7,306.2z"/>
			</g>
			<g>
				<path class="st0" d="M489.3,338.5l-15.1-4c-1.5-0.4-2.3-1.9-2-3.4c0.4-1.5,1.9-2.3,3.4-2l15.1,4c1.5,0.4,2.3,1.9,2,3.4
					C492.3,338.1,490.8,338.9,489.3,338.5z"/>
			</g>
			<g>
				<path class="st0" d="M450.9,328.4l-33-8.7c-1.5-0.4-2.3-1.9-2-3.4c0.4-1.5,1.9-2.3,3.4-2l33,8.7c1.5,0.4,2.3,1.9,2,3.4
					C453.8,327.9,452.3,328.8,450.9,328.4z"/>
			</g>
			<g>
				<path class="st0" d="M394.2,313.5l-22-5.8c-1.5-0.4-2.3-1.9-2-3.4c0.4-1.5,1.9-2.3,3.4-2l22,5.8c1.5,0.4,2.3,1.9,2,3.4
					C397.2,313,395.7,313.9,394.2,313.5z"/>
			</g>
			<g>
				<path class="st0" d="M485.9,351.7l-19.2-5.1c-1.5-0.4-2.3-1.9-2-3.4c0.4-1.5,1.9-2.3,3.4-2l19.2,5.1c1.5,0.4,2.3,1.9,2,3.4
					C488.8,351.2,487.3,352.1,485.9,351.7z"/>
			</g>
			<g>
				<path class="st0" d="M428.5,336.6l-12.5-3.3c-1.5-0.4-2.3-1.9-2-3.4c0.4-1.5,1.9-2.3,3.4-2l12.5,3.3c1.5,0.4,2.3,1.9,2,3.4
					C431.4,336.1,429.9,337,428.5,336.6z"/>
			</g>
			<g>
				<path class="st0" d="M399.8,329l-31.1-8.2c-1.5-0.4-2.3-1.9-2-3.4c0.4-1.5,1.9-2.3,3.4-2l31.1,8.2c1.5,0.4,2.3,1.9,2,3.4
					C402.7,328.5,401.2,329.4,399.8,329z"/>
			</g>
			<g>
				<path class="st0" d="M482.4,364.9l-30.5-8c-1.5-0.4-2.3-1.9-2-3.4c0.4-1.5,1.9-2.3,3.4-2l30.5,8c1.5,0.4,2.3,1.9,2,3.4
					C485.4,364.4,483.9,365.2,482.4,364.9z"/>
			</g>
			<g>
				<path class="st0" d="M420,348.4L365.2,334c-1.5-0.4-2.3-1.9-2-3.4c0.4-1.5,1.9-2.3,3.4-2l54.7,14.4c1.5,0.4,2.3,1.9,2,3.4
					C423,347.9,421.4,348.8,420,348.4z"/>
			</g>
			<g>
				<path class="st0" d="M478.9,378l-15.1-4c-1.5-0.4-2.3-1.9-2-3.4c0.4-1.5,1.9-2.3,3.4-2l15.1,4c1.5,0.4,2.3,1.9,2,3.4
					C481.9,377.5,480.4,378.4,478.9,378z"/>
			</g>
			<g>
				<path class="st0" d="M445.5,369.2l-38-10c-1.5-0.4-2.3-1.9-2-3.4c0.4-1.5,1.9-2.3,3.4-2l38,10c1.5,0.4,2.3,1.9,2,3.4
					C448.5,368.7,447,369.6,445.5,369.2z"/>
			</g>
			<g>
				<path class="st0" d="M380.1,352l-18.3-4.8c-1.5-0.4-2.3-1.9-2-3.4c0.4-1.5,1.9-2.3,3.4-2l18.3,4.8c1.5,0.4,2.3,1.9,2,3.4
					C383.1,351.5,381.6,352.4,380.1,352z"/>
			</g>
		</g>
	</g>
</g>
</svg>
