<?xml version="1.0" encoding="utf-8"?>
<!-- Generator: Adobe Illustrator 21.0.0, SVG Export Plug-In . SVG Version: 6.00 Build 0)  -->
<svg version="1.1" id="Layer_1" xmlns="http://www.w3.org/2000/svg" xmlns:xlink="http://www.w3.org/1999/xlink" x="0px" y="0px"
	 viewBox="0 0 51 46.7" style="enable-background:new 0 0 51 46.7;" xml:space="preserve">
<style type="text/css">
	.st0{fill:#D6D7D8;}
</style>
<title>Asset 2100</title>
<g id="Layer_2">
	<g id="Layer_2-2">
		<path class="st0" d="M40,24.6V17c0-4.8-2.9-9.2-7.3-11.2c-1-0.4-2-0.8-3-1V4.2c0-2.3-1.9-4.2-4.2-4.2s-4.2,1.9-4.2,4.2v0.6
			c-0.9,0.3-1.8,0.6-2.7,1c-4.4,2-7.3,6.3-7.5,11.2v7.6c0.1,5.2-2,10.2-5.7,13.8c-0.3,0.3-0.3,0.9,0,1.2c0.1,0.1,0.3,0.2,0.5,0.2
			l8.1,1.4c1.5,0.3,2.9,0.5,4.2,0.7c2,4.2,7,5.9,11.2,3.9c1.7-0.8,3.1-2.2,3.9-3.9c1.3-0.2,2.7-0.4,4.2-0.6l8.1-1.4
			c0.5-0.1,0.8-0.5,0.7-1c0-0.2-0.1-0.3-0.2-0.5C42.1,34.9,40,29.9,40,24.6z M23,4.2c0-1.4,1.1-2.6,2.5-2.6c1.4,0,2.6,1.1,2.6,2.6
			v0.2c-1.7-0.3-3.4-0.3-5.1,0V4.2z M25.6,45c-2.2,0-4.2-1.1-5.4-2.8c1.8,0.2,3.6,0.3,5.4,0.3c1.8,0,3.6-0.1,5.5-0.3
			C29.8,43.9,27.8,45,25.6,45z M37.1,39.6c-1.6,0.3-3.1,0.5-4.5,0.7l0,0l-1.8,0.2l0,0l-1.6,0.1h-0.3l-1.4,0.1h-0.3
			c-1.1,0-2.1,0-3.2,0h-0.3l-1.3-0.1h-0.3l-1.5-0.1h-0.1l-1.8-0.2l0,0c-1.4-0.2-2.9-0.4-4.6-0.7l-6.5-1.1c3.4-3.8,5.2-8.8,5.1-13.9
			V17c0.2-4.2,2.7-7.9,6.5-9.7c1-0.4,2-0.8,3-1l0,0c2.1-0.5,4.3-0.5,6.4-0.1l0,0C29.9,6.5,31,6.8,32,7.3c3.8,1.7,6.2,5.5,6.3,9.7
			v7.6c0,5.1,1.9,10.1,5.4,13.9L37.1,39.6z"/>
		<path class="st0" d="M31,9.6c-3.4-1.5-7.2-1.5-10.6,0c-1.9,0.9-5,3.4-5.1,7.3c0,0.5,0.4,0.8,0.8,0.9l0,0c0.5,0,0.9-0.4,0.9-0.8
			c0,0,0,0,0,0c0-3.1,2.6-5.1,4.1-5.8c2.9-1.3,6.3-1.3,9.2,0c0.4,0.2,0.9,0.1,1.2-0.3c0.2-0.4,0.1-0.9-0.3-1.2C31,9.7,31,9.7,31,9.6
			L31,9.6z"/>
		<path class="st0" d="M4.1,17.2c-0.3-0.3-0.9-0.3-1.2,0C-1,21.1-1,27.3,2.9,31.2c0.3,0.4,0.8,0.5,1.2,0.2c0.4-0.3,0.5-0.8,0.2-1.2
			c-0.1-0.1-0.1-0.2-0.2-0.2c-3.2-3.2-3.2-8.3,0-11.5C4.4,18.2,4.4,17.6,4.1,17.2C4.1,17.3,4.1,17.3,4.1,17.2z"/>
		<path class="st0" d="M7.1,29.5c0.5,0,0.9-0.4,0.9-0.8c0-0.3-0.1-0.5-0.3-0.7c-2.2-2.2-2.2-5.7,0-7.9c0.3-0.4,0.3-0.9-0.1-1.2
			c-0.3-0.3-0.8-0.3-1.1,0c-2.8,2.8-2.8,7.4,0,10.3C6.6,29.4,6.8,29.5,7.1,29.5z"/>
		<path class="st0" d="M48.1,17.2c-0.4-0.3-0.9-0.3-1.2,0.1c-0.3,0.3-0.3,0.8,0,1.1c3.2,3.2,3.2,8.3,0,11.5
			c-0.4,0.3-0.4,0.8-0.1,1.2s0.8,0.4,1.2,0.1c0,0,0,0,0.1-0.1C52,27.3,52,21.1,48.1,17.2z"/>
		<path class="st0" d="M43.3,18.9c-0.3,0.3-0.3,0.9,0,1.2c2.2,2.2,2.2,5.7,0,7.9c-0.4,0.3-0.4,0.8-0.1,1.2s0.8,0.4,1.2,0.1
			c0,0,0,0,0.1-0.1c2.8-2.8,2.8-7.4,0-10.3C44.2,18.6,43.7,18.6,43.3,18.9z"/>
	</g>
</g>
</svg>
