<?xml version="1.0" encoding="utf-8"?>
<!-- Generator: Adobe Illustrator 21.0.0, SVG Export Plug-In . SVG Version: 6.00 Build 0)  -->
<svg version="1.1" id="Layer_1" xmlns="http://www.w3.org/2000/svg" xmlns:xlink="http://www.w3.org/1999/xlink" x="0px" y="0px"
	 viewBox="0 0 53.8 52.1" style="enable-background:new 0 0 53.8 52.1;" xml:space="preserve">
<style type="text/css">
	.st0{fill:none;stroke:#FFFFFF;stroke-width:2.0513;stroke-miterlimit:10;}
</style>
<title>Asset 11100</title>
<g id="Layer_3">
	<path class="st0" d="M27.1,31c-1.1-0.9-2.3-1.5-3.7-1.9c-3.9-0.8-5,0-5.7,0.3c-2.2,0.6-3.6,3.5-3.8,4.1c-0.7,1.7-1.1,3.4-1.3,5.2
		c-0.2,2.1-0.4,4.3-0.4,6.5c-0.1,2.4,0.1,4.9,0.1,4.9s2.5-0.5,4.8-1.1c2.1-0.6,4.1-1.3,6.2-2c1.7-0.6,3.3-1.5,4.7-2.5
		c0.4-0.4,2.9-2.4,3-4.7c0.1-0.8,0.5-2.1-1.2-5.6C29.2,32.9,28.2,31.8,27.1,31z"/>
	<path class="st0" d="M29.8,30.1c-1.1,0.8-2.1,1.8-2.9,2.9c-1.8,3.5-1.5,4.8-1.4,5.5c0,2.3,2.4,4.5,2.7,4.9c1.4,1.1,3,2.1,4.5,2.8
		c2,0.9,4,1.7,6.1,2.4c2.3,0.8,4.8,1.4,4.8,1.4s0.3-2.5,0.4-4.9c0.1-2.2,0.1-4.3,0-6.5c-0.1-1.8-0.5-3.5-1.1-5.2
		c-0.2-0.5-1.4-3.5-3.6-4.3c-0.7-0.3-1.9-1-5.7-0.6C32.3,28.7,30.9,29.3,29.8,30.1z"/>
	<path class="st0" d="M30.8,29c0.6,1.3,1.5,2.3,2.6,3.2c3.3,2.3,4.5,2,5.3,2.1c2.3,0.4,4.8-1.8,5.2-2.2c1.3-1.3,2.4-2.7,3.3-4.3
		c1.1-1.8,2.1-3.7,3.1-5.7c1-2.1,2-4.6,2-4.6s-2.7-0.6-4.9-1c-2.1-0.4-4.3-0.6-6.4-0.7c-1.8-0.1-3.6,0.1-5.4,0.4
		c-0.6,0.1-3.6,1-4.7,3.1c-0.4,0.7-1.3,1.7-1.2,5.6C29.7,26.4,30.1,27.7,30.8,29z"/>
	<path class="st0" d="M27.3,25.9c1.4-0.2,2.7-0.5,4-1.1c3.3-2.2,3.6-3.4,3.9-4.2c1.2-2,0.1-5.1,0-5.6c-0.7-1.7-1.5-3.3-2.6-4.7
		c-1.3-1.7-2.6-3.4-4.1-5c-1.6-1.8-3.6-3.5-3.6-3.5S23.3,4,22.1,6c-1.1,1.8-2.2,3.7-3.2,5.7c-0.8,1.6-1.3,3.3-1.7,5.1
		c-0.1,0.5-0.4,3.8,1.1,5.5c0.4,0.6,1.1,1.8,4.7,3.3C24.5,25.9,25.9,26.1,27.3,25.9z"/>
	<path class="st0" d="M25.4,27.4c0.4-1.4,0.4-2.7,0.1-4.2c-0.9-3.8-1.9-4.6-2.6-5.1c-1.5-1.8-4.8-1.8-5.3-1.8
		c-1.8,0.1-3.6,0.4-5.3,1c-2,0.7-4.1,1.5-6,2.3c-2.2,0.9-4.5,2.2-4.5,2.2s1.5,2.1,3,4c1.4,1.6,2.9,3.3,4.4,4.8
		c1.3,1.3,2.7,2.4,4.3,3.2c0.4,0.3,3.3,1.7,5.5,0.8c0.7-0.3,2-0.4,4.6-3.3C24.5,30.2,25.1,28.8,25.4,27.4z"/>
	<path class="st0" d="M27.1,31c-1.1-0.9-2.3-1.5-3.7-1.9c-3.9-0.8-5,0-5.7,0.3c-2.2,0.6-3.6,3.5-3.8,4.1c-0.7,1.7-1.1,3.4-1.3,5.2
		c-0.2,2.1-0.4,4.3-0.4,6.5c-0.1,2.4,0.1,4.9,0.1,4.9s2.5-0.5,4.8-1.1c2.1-0.6,4.1-1.3,6.2-2c1.7-0.6,3.3-1.5,4.7-2.5
		c0.4-0.4,2.9-2.4,3-4.7c0.1-0.8,0.5-2.1-1.2-5.6C29.2,32.9,28.2,31.8,27.1,31z"/>
	<path class="st0" d="M27,33c-1.8,3.5-1.5,4.8-1.4,5.5c0,2.3,2.4,4.5,2.7,4.9c1.4,1.1,3,2.1,4.5,2.8c2,0.9,4,1.7,6.1,2.4
		c2.3,0.8,4.8,1.4,4.8,1.4s0.3-2.5,0.4-4.9c0.1-2.2,0.1-4.3,0-6.5c-0.1-1.8-0.5-3.5-1.1-5.2c-0.2-0.5-1.4-3.5-3.6-4.3
		c-0.7-0.3-1.9-1-5.7-0.6c-1.4,0.3-2.6,0.9-3.7,1.7"/>
	<path class="st0" d="M27.3,25.9c1.4-0.2,2.7-0.5,4-1.1c3.3-2.2,3.6-3.4,3.9-4.2c1.2-2,0.1-5.1,0-5.6c-0.7-1.7-1.5-3.3-2.6-4.7
		c-1.3-1.7-2.6-3.4-4.1-5c-1.6-1.8-3.6-3.5-3.6-3.5S23.3,4,22.1,6c-1.1,1.8-2.2,3.7-3.2,5.7c-0.8,1.6-1.3,3.3-1.7,5.1
		c-0.1,0.5-0.4,3.8,1.1,5.5c0.4,0.6,1.1,1.8,4.7,3.3C24.5,25.9,25.9,26.1,27.3,25.9z"/>
	<path class="st0" d="M19.1,34.6c0.7-0.3,2-0.4,4.6-3.3c0.7-1.1,1.3-2.4,1.7-3.7"/>
	<path class="st0" d="M25.7,23.3c-0.9-3.8-1.9-4.6-2.6-5.1c-1.5-1.8-4.8-1.8-5.3-1.8c-1.8,0.1-3.6,0.4-5.3,1c-2,0.7-4.1,1.5-6,2.3
		C4.3,20.6,2,21.9,2,21.9s1.5,2.1,3,4c1.3,1.7,2.8,3.3,4.4,4.8"/>
	<path class="st0" d="M30.7,19.5c-0.4,0.7-1.3,1.7-1.2,5.6c0.1,0.9,0.3,1.7,0.7,2.4"/>
	<path class="st0" d="M33.3,32.2c3.3,2.3,4.5,2,5.3,2.1c2.3,0.4,4.8-1.8,5.2-2.2c1.3-1.3,2.4-2.7,3.3-4.3c1.1-1.8,2.1-3.8,3.1-5.7
		c1-2.1,2-4.6,2-4.6s-2.7-0.6-4.9-1c-2.1-0.4-4.3-0.6-6.4-0.7"/>
</g>
</svg>
